<?xml version="1.0" encoding="utf-8"?>
<!-- Generated by IcoMoon.io -->
<!DOCTYPE svg PUBLIC "-//W3C//DTD SVG 1.1//EN" "http://www.w3.org/Graphics/SVG/1.1/DTD/svg11.dtd">
<svg version="1.1" xmlns="http://www.w3.org/2000/svg" xmlns:xlink="http://www.w3.org/1999/xlink" width="28" height="28" viewBox="0 0 28 28">
<g id="icomoon-ignore">
</g>
<path d="M0 14q0-3.266 1.609-6.023t4.367-4.367 6.023-1.609 6.023 1.609 4.367 4.367 1.609 6.023-1.609 6.023-4.367 4.367-6.023 1.609-6.023-1.609-4.367-4.367-1.609-6.023zM3.5 14q0 2.312 1.141 4.266t3.094 3.094 4.266 1.141 4.266-1.141 3.094-3.094 1.141-4.266-1.141-4.266-3.094-3.094-4.266-1.141-4.266 1.141-3.094 3.094-1.141 4.266zM6.531 14.313q0.125-0.313 0.469-0.313h3v-5.5q0-0.219 0.141-0.359t0.359-0.141h3q0.219 0 0.359 0.141t0.141 0.359v5.5h3q0.219 0 0.359 0.141t0.141 0.359q0 0.187-0.156 0.375l-4.984 4.984q-0.172 0.141-0.359 0.141t-0.359-0.141l-5-5q-0.234-0.25-0.109-0.547z" fill="#000000"></path>
</svg>
