<?xml version="1.0" encoding="utf-8"?>
<!-- Generated by IcoMoon.io -->
<!DOCTYPE svg PUBLIC "-//W3C//DTD SVG 1.1//EN" "http://www.w3.org/Graphics/SVG/1.1/DTD/svg11.dtd">
<svg version="1.1" xmlns="http://www.w3.org/2000/svg" xmlns:xlink="http://www.w3.org/1999/xlink" width="28" height="28" viewBox="0 0 28 28">
<g id="icomoon-ignore">
</g>
<path d="M0 27v-26q0-0.406 0.297-0.703t0.703-0.297h20q0.406 0 0.703 0.297t0.297 0.703v26q0 0.406-0.297 0.703t-0.703 0.297h-20q-0.406 0-0.703-0.297t-0.297-0.703zM4 21.5q0 0.219 0.141 0.359t0.359 0.141h1q0.219 0 0.359-0.141t0.141-0.359v-1q0-0.219-0.141-0.359t-0.359-0.141h-1q-0.219 0-0.359 0.141t-0.141 0.359v1zM4 17.5q0 0.219 0.141 0.359t0.359 0.141h1q0.219 0 0.359-0.141t0.141-0.359v-1q0-0.219-0.141-0.359t-0.359-0.141h-1q-0.219 0-0.359 0.141t-0.141 0.359v1zM4 13.5q0 0.219 0.141 0.359t0.359 0.141h1q0.219 0 0.359-0.141t0.141-0.359v-1q0-0.219-0.141-0.359t-0.359-0.141h-1q-0.219 0-0.359 0.141t-0.141 0.359v1zM4 9.5q0 0.219 0.141 0.359t0.359 0.141h1q0.219 0 0.359-0.141t0.141-0.359v-1q0-0.219-0.141-0.359t-0.359-0.141h-1q-0.219 0-0.359 0.141t-0.141 0.359v1zM4 5.5q0 0.219 0.141 0.359t0.359 0.141h1q0.219 0 0.359-0.141t0.141-0.359v-1q0-0.219-0.141-0.359t-0.359-0.141h-1q-0.219 0-0.359 0.141t-0.141 0.359v1zM8 22.5v3q0 0.219 0.141 0.359t0.359 0.141h5q0.219 0 0.359-0.141t0.141-0.359v-3q0-0.219-0.141-0.359t-0.359-0.141h-5q-0.219 0-0.359 0.141t-0.141 0.359zM8 17.5q0 0.219 0.141 0.359t0.359 0.141h1q0.219 0 0.359-0.141t0.141-0.359v-1q0-0.219-0.141-0.359t-0.359-0.141h-1q-0.219 0-0.359 0.141t-0.141 0.359v1zM8 13.5q0 0.219 0.141 0.359t0.359 0.141h1q0.219 0 0.359-0.141t0.141-0.359v-1q0-0.219-0.141-0.359t-0.359-0.141h-1q-0.219 0-0.359 0.141t-0.141 0.359v1zM8 9.5q0 0.219 0.141 0.359t0.359 0.141h1q0.219 0 0.359-0.141t0.141-0.359v-1q0-0.219-0.141-0.359t-0.359-0.141h-1q-0.219 0-0.359 0.141t-0.141 0.359v1zM8 5.5q0 0.219 0.141 0.359t0.359 0.141h1q0.219 0 0.359-0.141t0.141-0.359v-1q0-0.219-0.141-0.359t-0.359-0.141h-1q-0.219 0-0.359 0.141t-0.141 0.359v1zM12 17.5q0 0.219 0.141 0.359t0.359 0.141h1q0.219 0 0.359-0.141t0.141-0.359v-1q0-0.219-0.141-0.359t-0.359-0.141h-1q-0.219 0-0.359 0.141t-0.141 0.359v1zM12 13.5q0 0.219 0.141 0.359t0.359 0.141h1q0.219 0 0.359-0.141t0.141-0.359v-1q0-0.219-0.141-0.359t-0.359-0.141h-1q-0.219 0-0.359 0.141t-0.141 0.359v1zM12 9.5q0 0.219 0.141 0.359t0.359 0.141h1q0.219 0 0.359-0.141t0.141-0.359v-1q0-0.219-0.141-0.359t-0.359-0.141h-1q-0.219 0-0.359 0.141t-0.141 0.359v1zM12 5.5q0 0.219 0.141 0.359t0.359 0.141h1q0.219 0 0.359-0.141t0.141-0.359v-1q0-0.219-0.141-0.359t-0.359-0.141h-1q-0.219 0-0.359 0.141t-0.141 0.359v1zM16 21.5q0 0.219 0.141 0.359t0.359 0.141h1q0.219 0 0.359-0.141t0.141-0.359v-1q0-0.219-0.141-0.359t-0.359-0.141h-1q-0.219 0-0.359 0.141t-0.141 0.359v1zM16 17.5q0 0.219 0.141 0.359t0.359 0.141h1q0.219 0 0.359-0.141t0.141-0.359v-1q0-0.219-0.141-0.359t-0.359-0.141h-1q-0.219 0-0.359 0.141t-0.141 0.359v1zM16 13.5q0 0.219 0.141 0.359t0.359 0.141h1q0.219 0 0.359-0.141t0.141-0.359v-1q0-0.219-0.141-0.359t-0.359-0.141h-1q-0.219 0-0.359 0.141t-0.141 0.359v1zM16 9.5q0 0.219 0.141 0.359t0.359 0.141h1q0.219 0 0.359-0.141t0.141-0.359v-1q0-0.219-0.141-0.359t-0.359-0.141h-1q-0.219 0-0.359 0.141t-0.141 0.359v1zM16 5.5q0 0.219 0.141 0.359t0.359 0.141h1q0.219 0 0.359-0.141t0.141-0.359v-1q0-0.219-0.141-0.359t-0.359-0.141h-1q-0.219 0-0.359 0.141t-0.141 0.359v1z" fill="#000000"></path>
</svg>
