<?xml version="1.0" encoding="utf-8"?>
<!-- Generated by IcoMoon.io -->
<!DOCTYPE svg PUBLIC "-//W3C//DTD SVG 1.1//EN" "http://www.w3.org/Graphics/SVG/1.1/DTD/svg11.dtd">
<svg version="1.1" xmlns="http://www.w3.org/2000/svg" xmlns:xlink="http://www.w3.org/1999/xlink" width="28" height="28" viewBox="0 0 28 28">
<g id="icomoon-ignore">
</g>
<path d="M0 14q0-3.266 1.609-6.023t4.367-4.367 6.023-1.609 6.023 1.609 4.367 4.367 1.609 6.023-1.609 6.023-4.367 4.367-6.023 1.609-6.023-1.609-4.367-4.367-1.609-6.023zM2 14q0 2.031 0.797 3.883t2.133 3.187 3.187 2.133 3.883 0.797 3.883-0.797 3.187-2.133 2.133-3.187 0.797-3.883-0.797-3.883-2.133-3.187-3.187-2.133-3.883-0.797-3.883 0.797-3.187 2.133-2.133 3.187-0.797 3.883zM4 14q0-3.313 2.344-5.656t5.656-2.344 5.656 2.344 2.344 5.656-2.344 5.656-5.656 2.344-5.656-2.344-2.344-5.656zM6 14q0 2.484 1.758 4.242t4.242 1.758 4.242-1.758 1.758-4.242-1.758-4.242-4.242-1.758-4.242 1.758-1.758 4.242zM8 14q0-1.656 1.172-2.828t2.828-1.172 2.828 1.172 1.172 2.828-1.172 2.828-2.828 1.172-2.828-1.172-1.172-2.828z" fill="#000000"></path>
</svg>
