<?xml version="1.0" encoding="utf-8"?>
<!-- Generated by IcoMoon.io -->
<!DOCTYPE svg PUBLIC "-//W3C//DTD SVG 1.1//EN" "http://www.w3.org/Graphics/SVG/1.1/DTD/svg11.dtd">
<svg version="1.1" xmlns="http://www.w3.org/2000/svg" xmlns:xlink="http://www.w3.org/1999/xlink" width="28" height="28" viewBox="0 0 28 28">
<g id="icomoon-ignore">
</g>
<path d="M0 18.266v-8.531q0-0.641 0.531-1l12.797-8.531q0.328-0.203 0.672-0.203t0.672 0.203l12.797 8.531q0.531 0.359 0.531 1v8.531q0 0.641-0.531 1l-12.797 8.531q-0.328 0.203-0.672 0.203t-0.672-0.203l-12.797-8.531q-0.531-0.359-0.531-1zM2.406 16.016l3.016-2.016-3.016-2.016v4.031zM3.375 18.266l9.422 6.281v-5.609l-5.219-3.484zM3.375 9.734l4.203 2.812 5.219-3.484v-5.609zM9.75 14l4.25 2.844 4.25-2.844-4.25-2.844zM15.203 24.547l9.422-6.281-4.203-2.812-5.219 3.484v5.609zM15.203 9.063l5.219 3.484 4.203-2.812-9.422-6.281v5.609zM22.578 14l3.016 2.016v-4.031z" fill="#000000"></path>
</svg>
