<?xml version="1.0" encoding="utf-8"?>
<!-- Generated by IcoMoon.io -->
<!DOCTYPE svg PUBLIC "-//W3C//DTD SVG 1.1//EN" "http://www.w3.org/Graphics/SVG/1.1/DTD/svg11.dtd">
<svg version="1.1" xmlns="http://www.w3.org/2000/svg" xmlns:xlink="http://www.w3.org/1999/xlink" width="28" height="28" viewBox="0 0 28 28">
<g id="icomoon-ignore">
</g>
<path d="M0.203 23.5q0-0.203 0.156-0.359l5.187-5.187-2.25-2.25q-0.297-0.297-0.297-0.703t0.297-0.703 0.703-0.297h7q0.406 0 0.703 0.297t0.297 0.703v7q0 0.406-0.297 0.703t-0.703 0.297-0.703-0.297l-2.25-2.25-5.187 5.187q-0.156 0.156-0.359 0.156t-0.359-0.156l-1.781-1.781q-0.156-0.156-0.156-0.359zM12 13v-7q0-0.406 0.297-0.703t0.703-0.297 0.703 0.297l2.25 2.25 5.187-5.187q0.156-0.156 0.359-0.156t0.359 0.156l1.781 1.781q0.156 0.156 0.156 0.359t-0.156 0.359l-5.187 5.187 2.25 2.25q0.297 0.297 0.297 0.703t-0.297 0.703-0.703 0.297h-7q-0.406 0-0.703-0.297t-0.297-0.703z" fill="#000000"></path>
</svg>
