<?xml version="1.0" encoding="utf-8"?>
<!-- Generated by IcoMoon.io -->
<!DOCTYPE svg PUBLIC "-//W3C//DTD SVG 1.1//EN" "http://www.w3.org/Graphics/SVG/1.1/DTD/svg11.dtd">
<svg version="1.1" xmlns="http://www.w3.org/2000/svg" xmlns:xlink="http://www.w3.org/1999/xlink" width="28" height="28" viewBox="0 0 28 28">
<g id="icomoon-ignore">
</g>
<path d="M0 23.828v-19.656q0-0.906 0.633-1.539t1.539-0.633h19.656q0.906 0 1.539 0.633t0.633 1.539v19.656q0 0.906-0.633 1.539t-1.539 0.633h-19.656q-0.906 0-1.539-0.633t-0.633-1.539zM1.109 23.828q0 0.438 0.313 0.75t0.75 0.313h19.656q0.438 0 0.75-0.313t0.313-0.75v-19.656q0-0.437-0.313-0.75t-0.75-0.313h-19.656q-0.438 0-0.75 0.313t-0.313 0.75v19.656zM1.891 23.828v-2.203l11.109-3.047-3.313-6.859q0.063-0.016 0.187-0.039t0.187-0.023q2.656-0.5 4.742-0.336t3.453 0.719 2.242 1.477q0.422 0.438-0.391 0.656-1 0.25-4 0.969l-1.516-3.094q-1.734-0.109-3.75 0.25l2.938 6.047 8.328-2.266v7.75q0 0.109-0.086 0.195t-0.195 0.086h-19.656q-0.109 0-0.195-0.086t-0.086-0.195zM1.891 12.922v-8.75q0-0.109 0.086-0.195t0.195-0.086h19.656q0.109 0 0.195 0.086t0.086 0.195v6.687q-1.328-0.469-2.938-0.812-4.594-1-10.078-0.187l-0.281 0.047-1.016-2.094h-3.641l1.328 2.969q-2.063 0.797-3.594 2.141zM3.844 17.547q-0.375-3.172 2.594-4.766l2.016 4.219-3.984 0.953q-0.219 0.047-0.406-0.070t-0.219-0.336z" fill="#000000"></path>
</svg>
