<?xml version="1.0" encoding="utf-8"?>
<!-- Generated by IcoMoon.io -->
<!DOCTYPE svg PUBLIC "-//W3C//DTD SVG 1.1//EN" "http://www.w3.org/Graphics/SVG/1.1/DTD/svg11.dtd">
<svg version="1.1" xmlns="http://www.w3.org/2000/svg" xmlns:xlink="http://www.w3.org/1999/xlink" width="32" height="28" viewBox="0 0 32 28">
<g id="icomoon-ignore">
</g>
<path d="M0 19.766v-10.891h5.125v-4.469h3.187v15.359h-8.313zM3.203 17.203h1.922v-5.766h-1.922v5.766zM9.594 19.766h3.203v-10.891h-3.203v10.891zM9.594 7.594h3.203v-3.187h-3.203v3.187zM14.078 23.594v-2.547h5.125v-1.281h-5.125v-10.891h8.328v14.719h-8.328zM17.281 17.203h1.922v-5.766h-1.922v5.766zM23.688 23.594v-2.547h5.109v-1.281h-5.109v-10.891h8.313v14.719h-8.313zM26.875 17.203h1.922v-5.766h-1.922v5.766z" fill="#000000"></path>
</svg>
