<?xml version="1.0" encoding="utf-8"?>
<!-- Generated by IcoMoon.io -->
<!DOCTYPE svg PUBLIC "-//W3C//DTD SVG 1.1//EN" "http://www.w3.org/Graphics/SVG/1.1/DTD/svg11.dtd">
<svg version="1.1" xmlns="http://www.w3.org/2000/svg" xmlns:xlink="http://www.w3.org/1999/xlink" width="28" height="28" viewBox="0 0 28 28">
<g id="icomoon-ignore">
</g>
<path d="M1 15.281l5.281-4.234 7.719 4.766-5.344 4.453zM1 6.828l7.656-4.984 5.344 4.453-7.719 4.75zM6.359 21.406v-1.687l2.297 1.5 5.344-4.438v-0.031l0.016 0.016 0.016-0.016v0.031l5.359 4.438 2.297-1.5v1.687l-7.656 4.578v0.016l-0.016-0.016-0.016 0.016v-0.016zM14 15.813l7.719-4.766 5.281 4.234-7.641 4.984zM14 6.297l5.359-4.453 7.641 4.984-5.281 4.219z" fill="#000000"></path>
</svg>
