<?xml version="1.0" encoding="utf-8"?>
<!-- Generated by IcoMoon.io -->
<!DOCTYPE svg PUBLIC "-//W3C//DTD SVG 1.1//EN" "http://www.w3.org/Graphics/SVG/1.1/DTD/svg11.dtd">
<svg version="1.1" xmlns="http://www.w3.org/2000/svg" xmlns:xlink="http://www.w3.org/1999/xlink" width="28" height="28" viewBox="0 0 28 28">
<g id="icomoon-ignore">
</g>
<path d="M0 26.5v-25q0-0.625 0.438-1.062t1.062-0.438h14q0.625 0 1.375 0.313t1.188 0.75l4.875 4.875q0.438 0.438 0.75 1.188t0.313 1.375v18q0 0.625-0.438 1.062t-1.062 0.438h-21q-0.625 0-1.062-0.438t-0.438-1.062zM2 26h20v-16h-6.5q-0.625 0-1.062-0.438t-0.438-1.062v-6.5h-12v24zM4 19.5v-3q0-0.219 0.141-0.359t0.359-0.141h2.047l2.594-2.609q0.25-0.234 0.547-0.109 0.313 0.125 0.313 0.469v8.5q0 0.344-0.313 0.469-0.125 0.031-0.187 0.031-0.187 0-0.359-0.141l-2.594-2.609h-2.047q-0.219 0-0.359-0.141t-0.141-0.359zM11.906 20.773q0.016 0.414 0.313 0.695 0.313 0.266 0.688 0.266 0.422 0 0.734-0.313 1.359-1.453 1.359-3.422t-1.359-3.422q-0.281-0.297-0.703-0.313t-0.719 0.266-0.313 0.695 0.281 0.727q0.812 0.891 0.812 2.047t-0.812 2.047q-0.297 0.313-0.281 0.727zM15.211 23.148q0.039 0.414 0.367 0.664 0.281 0.234 0.625 0.234 0.484 0 0.781-0.375 2.016-2.484 2.016-5.672t-2.016-5.672q-0.25-0.328-0.672-0.375t-0.734 0.219q-0.328 0.266-0.367 0.68t0.227 0.742q1.563 1.922 1.563 4.406t-1.563 4.406q-0.266 0.328-0.227 0.742zM16 8h5.875q-0.156-0.453-0.344-0.641l-4.891-4.891q-0.187-0.187-0.641-0.344v5.875z" fill="#000000"></path>
</svg>
