<?xml version="1.0" encoding="utf-8"?>
<!-- Generated by IcoMoon.io -->
<!DOCTYPE svg PUBLIC "-//W3C//DTD SVG 1.1//EN" "http://www.w3.org/Graphics/SVG/1.1/DTD/svg11.dtd">
<svg version="1.1" xmlns="http://www.w3.org/2000/svg" xmlns:xlink="http://www.w3.org/1999/xlink" width="28" height="28" viewBox="0 0 28 28">
<g id="icomoon-ignore">
</g>
<path d="M0 26.5v-25q0-0.625 0.438-1.062t1.062-0.438h14q0.625 0 1.375 0.313t1.188 0.75l4.875 4.875q0.438 0.438 0.75 1.188t0.313 1.375v18q0 0.625-0.438 1.062t-1.062 0.438h-21q-0.625 0-1.062-0.438t-0.438-1.062zM2 26h20v-16h-6.5q-0.625 0-1.062-0.438t-0.438-1.062v-6.5h-12v24zM4 20v-6q0-0.812 0.594-1.406t1.406-0.594h6q0.812 0 1.406 0.594t0.594 1.406v6q0 0.812-0.594 1.406t-1.406 0.594h-6q-0.812 0-1.406-0.594t-0.594-1.406zM15 17.703v-1.406l4.141-4.156q0.141-0.141 0.359-0.141 0.063 0 0.187 0.031 0.313 0.125 0.313 0.469v9q0 0.344-0.313 0.469-0.125 0.031-0.187 0.031-0.219 0-0.359-0.141zM16 8h5.875q-0.156-0.453-0.344-0.641l-4.891-4.891q-0.187-0.187-0.641-0.344v5.875z" fill="#000000"></path>
</svg>
