<?xml version="1.0" encoding="utf-8"?>
<!-- Generated by IcoMoon.io -->
<!DOCTYPE svg PUBLIC "-//W3C//DTD SVG 1.1//EN" "http://www.w3.org/Graphics/SVG/1.1/DTD/svg11.dtd">
<svg version="1.1" xmlns="http://www.w3.org/2000/svg" xmlns:xlink="http://www.w3.org/1999/xlink" width="28" height="28" viewBox="0 0 28 28">
<g id="icomoon-ignore">
</g>
<path d="M0 26.5v-25q0-0.625 0.438-1.062t1.062-0.438h14q0.625 0 1.375 0.313t1.188 0.75l4.875 4.875q0.438 0.438 0.75 1.188t0.313 1.375v18q0 0.625-0.438 1.062t-1.062 0.438h-21q-0.625 0-1.062-0.438t-0.438-1.062zM2 26h20v-16h-6.5q-0.625 0-1.062-0.438t-0.438-1.062v-6.5h-2v2h-2v-2h-8v24zM6 21q0-0.391 0.125-0.812 0.328-0.984 1.875-6.188v-2h2v2h1.234q0.344 0 0.609 0.203t0.359 0.531l1.672 5.453q0.125 0.422 0.125 0.812 0 1.297-1.133 2.148t-2.867 0.852-2.867-0.852-1.133-2.148zM8 21q0 0.406 0.586 0.703t1.414 0.297 1.414-0.297 0.586-0.703-0.586-0.703-1.414-0.297-1.414 0.297-0.586 0.703zM8 10h2v-2h-2v2zM8 6h2v-2h-2v2zM10 12h2v-2h-2v2zM10 8h2v-2h-2v2zM16 8h5.875q-0.156-0.453-0.344-0.641l-4.891-4.891q-0.187-0.187-0.641-0.344v5.875z" fill="#000000"></path>
</svg>
