<?xml version="1.0" encoding="utf-8"?>
<!-- Generated by IcoMoon.io -->
<!DOCTYPE svg PUBLIC "-//W3C//DTD SVG 1.1//EN" "http://www.w3.org/Graphics/SVG/1.1/DTD/svg11.dtd">
<svg version="1.1" xmlns="http://www.w3.org/2000/svg" xmlns:xlink="http://www.w3.org/1999/xlink" width="28" height="28" viewBox="0 0 28 28">
<g id="icomoon-ignore">
</g>
<path d="M0 14q0-3.266 1.609-6.023t4.367-4.367 6.023-1.609 6.023 1.609 4.367 4.367 1.609 6.023-1.609 6.023-4.367 4.367-6.023 1.609-6.023-1.609-4.367-4.367-1.609-6.023zM2 14q0 2.031 0.797 3.883t2.133 3.187 3.187 2.133 3.883 0.797 3.883-0.797 3.187-2.133 2.133-3.187 0.797-3.883-0.797-3.883-2.133-3.187-3.187-2.133-3.883-0.797-3.883 0.797-3.187 2.133-2.133 3.187-0.797 3.883zM6 10q0-0.828 0.586-1.414t1.414-0.586 1.414 0.586 0.586 1.414-0.586 1.414-1.414 0.586-1.414-0.586-0.586-1.414zM6.281 19.203q0.578-1.891 2.156-3.047t3.563-1.156 3.563 1.156 2.156 3.047q0.125 0.391-0.063 0.758t-0.578 0.492-0.766-0.063-0.5-0.594q-0.391-1.25-1.445-2.023t-2.367-0.773-2.367 0.773-1.445 2.023q-0.125 0.406-0.492 0.594t-0.758 0.063q-0.406-0.125-0.594-0.492t-0.063-0.758zM14 10q0-0.828 0.586-1.414t1.414-0.586 1.414 0.586 0.586 1.414-0.586 1.414-1.414 0.586-1.414-0.586-0.586-1.414z" fill="#000000"></path>
</svg>
