<?xml version="1.0" encoding="utf-8"?>
<!-- Generated by IcoMoon.io -->
<!DOCTYPE svg PUBLIC "-//W3C//DTD SVG 1.1//EN" "http://www.w3.org/Graphics/SVG/1.1/DTD/svg11.dtd">
<svg version="1.1" xmlns="http://www.w3.org/2000/svg" xmlns:xlink="http://www.w3.org/1999/xlink" width="26" height="28" viewBox="0 0 26 28">
<g id="icomoon-ignore">
</g>
<path d="M0.422 21.5q0-0.422 0.281-0.703l20.094-20.094q0.281-0.281 0.703-0.281t0.703 0.281l3.094 3.094q0.281 0.281 0.281 0.703t-0.281 0.703l-20.094 20.094q-0.281 0.281-0.703 0.281t-0.703-0.281l-3.094-3.094q-0.281-0.281-0.281-0.703zM2 2l1.531-0.469 0.469-1.531 0.469 1.531 1.531 0.469-1.531 0.469-0.469 1.531-0.469-1.531zM5 5l3.062-0.938 0.938-3.063 0.938 3.063 3.063 0.938-3.063 0.938-0.938 3.063-0.938-3.063zM12 2l1.531-0.469 0.469-1.531 0.469 1.531 1.531 0.469-1.531 0.469-0.469 1.531-0.469-1.531zM16.922 7.406l1.672 1.672 4.578-4.578-1.672-1.672zM22 12l1.531-0.469 0.469-1.531 0.469 1.531 1.531 0.469-1.531 0.469-0.469 1.531-0.469-1.531z" fill="#000000"></path>
</svg>
