<?xml version="1.0" encoding="utf-8"?>
<!-- Generated by IcoMoon.io -->
<!DOCTYPE svg PUBLIC "-//W3C//DTD SVG 1.1//EN" "http://www.w3.org/Graphics/SVG/1.1/DTD/svg11.dtd">
<svg version="1.1" xmlns="http://www.w3.org/2000/svg" xmlns:xlink="http://www.w3.org/1999/xlink" width="18" height="28" viewBox="0 0 18 28">
<g id="icomoon-ignore">
</g>
<path d="M0 13v-2q0-0.406 0.297-0.703t0.703-0.297 0.703 0.297 0.297 0.703v2q0 2.891 2.055 4.945t4.945 2.055 4.945-2.055 2.055-4.945v-2q0-0.406 0.297-0.703t0.703-0.297 0.703 0.297 0.297 0.703v2q0 3.453-2.305 6.008t-5.695 2.93v2.063h4q0.406 0 0.703 0.297t0.297 0.703-0.297 0.703-0.703 0.297h-10q-0.406 0-0.703-0.297t-0.297-0.703 0.297-0.703 0.703-0.297h4v-2.063q-3.391-0.375-5.695-2.93t-2.305-6.008zM4 13v-8q0-2.063 1.469-3.531t3.531-1.469 3.531 1.469 1.469 3.531v8q0 2.063-1.469 3.531t-3.531 1.469-3.531-1.469-1.469-3.531z" fill="#000000"></path>
</svg>
