<?xml version="1.0" encoding="utf-8"?>
<!-- Generated by IcoMoon.io -->
<!DOCTYPE svg PUBLIC "-//W3C//DTD SVG 1.1//EN" "http://www.w3.org/Graphics/SVG/1.1/DTD/svg11.dtd">
<svg version="1.1" xmlns="http://www.w3.org/2000/svg" xmlns:xlink="http://www.w3.org/1999/xlink" width="30" height="28" viewBox="0 0 30 28">
<g id="icomoon-ignore">
</g>
<path d="M0 23v-18q0-0.406 0.297-0.703t0.703-0.297h28q0.406 0 0.703 0.297t0.297 0.703v18q0 0.406-0.297 0.703t-0.703 0.297h-28q-0.406 0-0.703-0.297t-0.297-0.703zM2 18q1.656 0 2.828 1.172t1.172 2.828h18q0-1.656 1.172-2.828t2.828-1.172v-8q-1.656 0-2.828-1.172t-1.172-2.828h-18q0 1.656-1.172 2.828t-2.828 1.172v8zM10 14q0-1.094 0.328-2.219t0.93-2.094 1.586-1.578 2.156-0.609 2.156 0.609 1.586 1.578 0.93 2.094 0.328 2.219-0.328 2.219-0.93 2.094-1.586 1.578-2.156 0.609-2.156-0.609-1.586-1.578-0.93-2.094-0.328-2.219zM11.906 11.641l1.203 1.25q0.656-0.578 0.859-0.891h0.031v4.5h-2v1.5h6v-1.5h-2v-7h-1.781z" fill="#000000"></path>
</svg>
