<?xml version="1.0" encoding="utf-8"?>
<!-- Generated by IcoMoon.io -->
<!DOCTYPE svg PUBLIC "-//W3C//DTD SVG 1.1//EN" "http://www.w3.org/Graphics/SVG/1.1/DTD/svg11.dtd">
<svg version="1.1" xmlns="http://www.w3.org/2000/svg" xmlns:xlink="http://www.w3.org/1999/xlink" width="22" height="28" viewBox="0 0 22 28">
<g id="icomoon-ignore">
</g>
<path d="M0 24v-10h10v10h-10zM0 12v-10h10v10h-10zM2 21.984h6v-5.984h-6v5.984zM2 10h6v-6h-6v6zM4 20v-2h2v2h-2zM4 8v-2h2v2h-2zM12 24v-10h6v2h2v-2h2v6h-6v-2h-2v6h-2zM12 12v-10h10v10h-10zM14 10h6v-6h-6v6zM16 24v-2h2v2h-2zM16 8v-2h2v2h-2zM20 24v-2h2v2h-2z" fill="#000000"></path>
</svg>
