<?xml version="1.0" encoding="utf-8"?>
<!-- Generated by IcoMoon.io -->
<!DOCTYPE svg PUBLIC "-//W3C//DTD SVG 1.1//EN" "http://www.w3.org/Graphics/SVG/1.1/DTD/svg11.dtd">
<svg version="1.1" xmlns="http://www.w3.org/2000/svg" xmlns:xlink="http://www.w3.org/1999/xlink" width="25" height="28" viewBox="0 0 25 28">
<g id="icomoon-ignore">
</g>
<path d="M0 14q0-1.031 0.734-1.766t1.766-0.734 1.766 0.734 0.734 1.766-0.734 1.766-1.766 0.734-1.766-0.734-0.734-1.766zM2.75 7q0-1.141 0.805-1.945t1.945-0.805 1.945 0.805 0.805 1.945-0.805 1.945-1.945 0.805-1.945-0.805-0.805-1.945zM3.25 21q0-0.938 0.656-1.594t1.594-0.656q0.922 0 1.586 0.656t0.664 1.594-0.664 1.594-1.586 0.656q-0.938 0-1.594-0.656t-0.656-1.594zM9.5 4q0-1.25 0.875-2.125t2.125-0.875 2.125 0.875 0.875 2.125-0.875 2.125-2.125 0.875-2.125-0.875-0.875-2.125zM10.5 24q0-0.828 0.586-1.414t1.414-0.586 1.414 0.586 0.586 1.414-0.586 1.414-1.414 0.586-1.414-0.586-0.586-1.414zM17.75 21q0-0.719 0.516-1.234t1.234-0.516 1.234 0.516 0.516 1.234-0.516 1.234-1.234 0.516-1.234-0.516-0.516-1.234zM18.25 7q0-0.516 0.367-0.883t0.883-0.367 0.883 0.367 0.367 0.883-0.367 0.883-0.883 0.367-0.883-0.367-0.367-0.883zM21 14q0-0.625 0.438-1.062t1.062-0.438 1.062 0.438 0.438 1.062-0.438 1.062-1.062 0.438-1.062-0.438-0.438-1.062z" fill="#000000"></path>
</svg>
