<?xml version="1.0" encoding="utf-8"?>
<!-- Generated by IcoMoon.io -->
<!DOCTYPE svg PUBLIC "-//W3C//DTD SVG 1.1//EN" "http://www.w3.org/Graphics/SVG/1.1/DTD/svg11.dtd">
<svg version="1.1" xmlns="http://www.w3.org/2000/svg" xmlns:xlink="http://www.w3.org/1999/xlink" width="28" height="28" viewBox="0 0 28 28">
<g id="icomoon-ignore">
</g>
<path d="M0 21.5v-15q0-1.859 1.32-3.18t3.18-1.32h15q1.859 0 3.18 1.32t1.32 3.18v15q0 1.859-1.32 3.18t-3.18 1.32h-15q-1.859 0-3.18-1.32t-1.32-3.18zM2 13.172q0 0.828 0.594 1.422t1.437 0.594q0.562 0 1.031-0.281l7.641 3.078q0.156 0.688 0.711 1.141t1.273 0.453q0.781 0 1.352-0.531t0.648-1.297l2.609-1.906q1.109 0 1.906-0.789t0.797-1.914-0.797-1.922-1.906-0.797q-1.125 0-1.914 0.789t-0.805 1.898l-1.687 2.422q-0.031 0-0.102-0.008t-0.102-0.008q-0.547 0-1.047 0.297l-7.641-3.078q-0.156-0.688-0.711-1.141t-1.258-0.453q-0.844 0-1.437 0.594t-0.594 1.437zM2.531 13.172q0-0.625 0.438-1.062t1.062-0.438q0.422 0 0.773 0.219t0.539 0.578l-0.75-0.297q-0.453-0.172-0.883 0.031t-0.602 0.641q-0.187 0.453-0.008 0.891t0.617 0.625v0.016l0.625 0.25q-0.219 0.031-0.313 0.031-0.625 0-1.062-0.43t-0.438-1.055zM13.359 18.234q0.078 0.031 0.734 0.297 0.453 0.187 0.906-0.008t0.641-0.648q0.172-0.453-0.016-0.898t-0.641-0.633l-0.625-0.25q0.219-0.031 0.328-0.031 0.609 0 1.047 0.43t0.438 1.055-0.438 1.055-1.047 0.43q-0.922 0-1.328-0.797zM17.469 13.141q0-0.75 0.531-1.281t1.297-0.531q0.75 0 1.281 0.531t0.531 1.281-0.531 1.281-1.281 0.531q-0.766 0-1.297-0.531t-0.531-1.281zM17.844 13.125q0 0.609 0.43 1.031t1.023 0.422 1.023-0.422 0.43-1.031q0-0.594-0.43-1.023t-1.023-0.43-1.023 0.43-0.43 1.023z" fill="#000000"></path>
</svg>
