<?xml version="1.0" encoding="utf-8"?>
<!-- Generated by IcoMoon.io -->
<!DOCTYPE svg PUBLIC "-//W3C//DTD SVG 1.1//EN" "http://www.w3.org/Graphics/SVG/1.1/DTD/svg11.dtd">
<svg version="1.1" xmlns="http://www.w3.org/2000/svg" xmlns:xlink="http://www.w3.org/1999/xlink" width="32" height="28" viewBox="0 0 32 28">
<g id="icomoon-ignore">
</g>
<path d="M0 12.063q0-1.344 0.953-2.289t2.281-0.945q1.141 0 2.031 0.719t1.141 1.828l12.234 4.922q0.766-0.453 1.656-0.453 0.219 0 0.328 0.016l2.703-3.875q0.016-1.781 1.281-3.039t3.047-1.258q1.797 0 3.070 1.266t1.273 3.063-1.273 3.070-3.070 1.273l-4.141 3.031q-0.125 1.25-1.055 2.086t-2.164 0.836q-1.141 0-2.031-0.719t-1.141-1.828l-12.234-4.922q-0.797 0.469-1.656 0.469-1.328 0-2.281-0.953t-0.953-2.297zM0.859 12.063q0 1 0.695 1.695t1.68 0.695q0.172 0 0.516-0.063l-1-0.406q-0.516-0.219-0.82-0.695t-0.305-1.039q0-0.781 0.555-1.336t1.336-0.555q0.313 0 0.641 0.125v-0.016l1.188 0.484q-0.313-0.578-0.883-0.922t-1.227-0.344q-0.984 0-1.68 0.695t-0.695 1.68zM18.188 20.188q0.297 0.578 0.867 0.922t1.242 0.344q0.984 0 1.68-0.695t0.695-1.68-0.695-1.687-1.68-0.703q-0.203 0-0.516 0.063 0.031 0.016 0.313 0.125t0.336 0.133 0.289 0.133 0.297 0.156 0.25 0.172 0.242 0.211 0.172 0.227 0.156 0.281 0.078 0.328 0.039 0.391q0 0.781-0.555 1.336t-1.336 0.555q-0.219 0-0.492-0.070t-0.453-0.141-0.492-0.211-0.438-0.187zM24.75 12.016q0 1.203 0.852 2.055t2.055 0.852 2.063-0.852 0.859-2.055-0.859-2.055-2.063-0.852q-1.188 0-2.047 0.852t-0.859 2.055zM25.359 12.016q0-0.969 0.68-1.648t1.633-0.68 1.641 0.688 0.688 1.641-0.68 1.633-1.648 0.68q-0.953 0-1.633-0.68t-0.68-1.633z" fill="#000000"></path>
</svg>
