<?xml version="1.0" encoding="utf-8"?>
<!-- Generated by IcoMoon.io -->
<!DOCTYPE svg PUBLIC "-//W3C//DTD SVG 1.1//EN" "http://www.w3.org/Graphics/SVG/1.1/DTD/svg11.dtd">
<svg version="1.1" xmlns="http://www.w3.org/2000/svg" xmlns:xlink="http://www.w3.org/1999/xlink" width="26" height="28" viewBox="0 0 26 28">
<g id="icomoon-ignore">
</g>
<path d="M0 22v-6q0-0.812 0.594-1.406t1.406-0.594h8q0.812 0 1.406 0.594t0.594 1.406v6q0 0.812-0.594 1.406t-1.406 0.594h-8q-0.812 0-1.406-0.594t-0.594-1.406zM0 10v-6q0-0.812 0.594-1.406t1.406-0.594h8q0.812 0 1.406 0.594t0.594 1.406v6q0 0.812-0.594 1.406t-1.406 0.594h-8q-0.812 0-1.406-0.594t-0.594-1.406zM14 22v-6q0-0.812 0.594-1.406t1.406-0.594h8q0.812 0 1.406 0.594t0.594 1.406v6q0 0.812-0.594 1.406t-1.406 0.594h-8q-0.812 0-1.406-0.594t-0.594-1.406zM14 10v-6q0-0.812 0.594-1.406t1.406-0.594h8q0.812 0 1.406 0.594t0.594 1.406v6q0 0.812-0.594 1.406t-1.406 0.594h-8q-0.812 0-1.406-0.594t-0.594-1.406z" fill="#000000"></path>
</svg>
