<?xml version="1.0" encoding="utf-8"?>
<!-- Generated by IcoMoon.io -->
<!DOCTYPE svg PUBLIC "-//W3C//DTD SVG 1.1//EN" "http://www.w3.org/Graphics/SVG/1.1/DTD/svg11.dtd">
<svg version="1.1" xmlns="http://www.w3.org/2000/svg" xmlns:xlink="http://www.w3.org/1999/xlink" width="28" height="28" viewBox="0 0 28 28">
<g id="icomoon-ignore">
</g>
<path d="M0 22.5v-3q0-0.625 0.438-1.062t1.062-0.438h5q0.625 0 1.062 0.438t0.438 1.062v3q0 0.625-0.438 1.062t-1.062 0.438h-5q-0.625 0-1.062-0.438t-0.438-1.062zM0 14.5v-3q0-0.625 0.438-1.062t1.062-0.438h5q0.625 0 1.062 0.438t0.438 1.062v3q0 0.625-0.438 1.062t-1.062 0.438h-5q-0.625 0-1.062-0.438t-0.438-1.062zM0 6.5v-3q0-0.625 0.438-1.062t1.062-0.438h5q0.625 0 1.062 0.438t0.438 1.062v3q0 0.625-0.438 1.062t-1.062 0.438h-5q-0.625 0-1.062-0.438t-0.438-1.062zM10 22.5v-3q0-0.625 0.438-1.062t1.062-0.438h5q0.625 0 1.062 0.438t0.438 1.062v3q0 0.625-0.438 1.062t-1.062 0.438h-5q-0.625 0-1.062-0.438t-0.438-1.062zM10 14.5v-3q0-0.625 0.438-1.062t1.062-0.438h5q0.625 0 1.062 0.438t0.438 1.062v3q0 0.625-0.438 1.062t-1.062 0.438h-5q-0.625 0-1.062-0.438t-0.438-1.062zM10 6.5v-3q0-0.625 0.438-1.062t1.062-0.438h5q0.625 0 1.062 0.438t0.438 1.062v3q0 0.625-0.438 1.062t-1.062 0.438h-5q-0.625 0-1.062-0.438t-0.438-1.062zM20 22.5v-3q0-0.625 0.438-1.062t1.062-0.438h5q0.625 0 1.062 0.438t0.438 1.062v3q0 0.625-0.438 1.062t-1.062 0.438h-5q-0.625 0-1.062-0.438t-0.438-1.062zM20 14.5v-3q0-0.625 0.438-1.062t1.062-0.438h5q0.625 0 1.062 0.438t0.438 1.062v3q0 0.625-0.438 1.062t-1.062 0.438h-5q-0.625 0-1.062-0.438t-0.438-1.062zM20 6.5v-3q0-0.625 0.438-1.062t1.062-0.438h5q0.625 0 1.062 0.438t0.438 1.062v3q0 0.625-0.438 1.062t-1.062 0.438h-5q-0.625 0-1.062-0.438t-0.438-1.062z" fill="#000000"></path>
</svg>
