<?xml version="1.0" encoding="utf-8"?>
<!-- Generated by IcoMoon.io -->
<!DOCTYPE svg PUBLIC "-//W3C//DTD SVG 1.1//EN" "http://www.w3.org/Graphics/SVG/1.1/DTD/svg11.dtd">
<svg version="1.1" xmlns="http://www.w3.org/2000/svg" xmlns:xlink="http://www.w3.org/1999/xlink" width="28" height="28" viewBox="0 0 28 28">
<g id="icomoon-ignore">
</g>
<path d="M0 21.5v-15q0-1.859 1.32-3.18t3.18-1.32h15q1.859 0 3.18 1.32t1.32 3.18v15q0 1.859-1.32 3.18t-3.18 1.32h-15q-1.859 0-3.18-1.32t-1.32-3.18zM4 21.5q0 0.203 0.148 0.352t0.352 0.148h15q0.203 0 0.352-0.148t0.148-0.352v-15q0-0.203-0.148-0.352t-0.352-0.148h-15q-0.203 0-0.352 0.148t-0.148 0.352v15zM6.109 10.547q0.266-0.547 0.891-0.547h10q0.625 0 0.891 0.547 0.281 0.547-0.078 1.031l-5 7q-0.297 0.422-0.812 0.422t-0.812-0.422l-5-7q-0.359-0.484-0.078-1.031z" fill="#000000"></path>
</svg>
