<?xml version="1.0" encoding="utf-8"?>
<!-- Generated by IcoMoon.io -->
<!DOCTYPE svg PUBLIC "-//W3C//DTD SVG 1.1//EN" "http://www.w3.org/Graphics/SVG/1.1/DTD/svg11.dtd">
<svg version="1.1" xmlns="http://www.w3.org/2000/svg" xmlns:xlink="http://www.w3.org/1999/xlink" width="28" height="28" viewBox="0 0 28 28">
<g id="icomoon-ignore">
</g>
<path d="M0 21.5v-15q0-1.859 1.32-3.18t3.18-1.32h15q1.859 0 3.18 1.32t1.32 3.18v15q0 1.859-1.32 3.18t-3.18 1.32h-15q-1.859 0-3.18-1.32t-1.32-3.18zM6.453 12.375h1.984v6.312q0 1.219 0.266 1.891 0.266 0.656 0.922 1.219 0.672 0.578 1.625 0.891 0.969 0.313 2.188 0.313 1.047 0 2.016-0.219 0.891-0.203 2.094-0.766v-2.828q-1.375 0.875-2.719 0.875-0.797 0-1.375-0.359-0.453-0.266-0.609-0.703-0.172-0.469-0.172-2.016v-4.609h4.281v-2.828h-4.281v-4.547h-2.562q-0.172 1.406-0.625 2.297t-1.219 1.547q-0.75 0.625-1.813 0.984v2.547z" fill="#000000"></path>
</svg>
