<?xml version="1.0" encoding="utf-8"?>
<!-- Generator: Adobe Illustrator 16.0.0, SVG Export Plug-In . SVG Version: 6.00 Build 0)  -->
<!DOCTYPE svg PUBLIC "-//W3C//DTD SVG 1.1//EN" "http://www.w3.org/Graphics/SVG/1.1/DTD/svg11.dtd">
<svg version="1.1" xmlns="http://www.w3.org/2000/svg" xmlns:xlink="http://www.w3.org/1999/xlink" x="0px" y="0px"
	 width="310.667px" height="53.666px" viewBox="0 0 310.667 53.666" enable-background="new 0 0 310.667 53.666"
	 xml:space="preserve">
<g id="Layer_2">
	<rect y="-19.333" fill="#43434A" width="310.667" height="90.333"/>
</g>
<g id="Layer_1">
	<g>
		<path fill="#A1DAE0" d="M76.332,34.264c0,0-1.318-1.686-3.35-1.475c0,0-2.235,0.113-3.553,2.212l-5.892,9.457h-7.525v-6.907h2.538
			V25.173h-3.323V13.969H43.269v12.376h3.326v10.07h-2.54v5.103H32.524l-9.913-15.91c-2.215-3.529-5.975-3.716-5.975-3.716
			c-3.416-0.357-5.636,2.478-5.636,2.478l-9.284,9.522h16.927l1.917,3.031l5.818,9.547c1.018,1.581,2.384,2.303,3.753,2.303h13.922
			v0.018h11.957v-0.018h8.947c0.811,0,1.625-0.428,2.229-1.369l3.459-5.676l1.14-1.802h10.064L76.332,34.264z M55.257,28.584v5.557
			H49.89v-5.557H55.257z M46.562,22.936v-5.557h5.37v5.557H46.562z M47.387,41.517h-0.039v-1.693h5.369v5.557h-1.38
			C51.456,43.492,50.151,41.517,47.387,41.517z"/>
		<ellipse fill="#5EB8BC" cx="66.076" cy="29.066" rx="5.222" ry="5.405"/>
		<ellipse fill="#5EB8BC" cx="25.428" cy="13.969" rx="8.784" ry="9.092"/>
	</g>
	<path fill="#F7F7F7" d="M108.742,21.974c0,0.676-0.072,1.345-0.215,2.008c-0.144,0.663-0.371,1.287-0.683,1.872
		s-0.722,1.099-1.229,1.541c-0.507,0.442-1.111,0.78-1.813,1.014v0.234c0.624,0.156,1.215,0.39,1.774,0.702
		c0.559,0.312,1.046,0.735,1.463,1.268c0.415,0.533,0.747,1.183,0.994,1.95c0.247,0.767,0.37,1.67,0.37,2.71
		c0,1.404-0.24,2.62-0.721,3.646c-0.481,1.027-1.132,1.866-1.95,2.516c-0.819,0.65-1.774,1.131-2.866,1.442
		c-1.093,0.312-2.25,0.469-3.472,0.469c-0.364,0-0.832,0-1.403,0c-0.572,0-1.19-0.02-1.853-0.059
		c-0.663-0.039-1.346-0.098-2.048-0.176s-1.353-0.195-1.95-0.351v-26.91c0.858-0.156,1.917-0.292,3.179-0.41
		c1.261-0.117,2.516-0.175,3.764-0.175c1.144,0,2.242,0.091,3.295,0.273c1.054,0.182,1.976,0.521,2.77,1.014
		c0.793,0.494,1.423,1.177,1.892,2.047C108.507,19.472,108.742,20.596,108.742,21.974z M99.186,27.239
		c0.286,0,0.617-0.02,0.995-0.059c0.376-0.039,0.682-0.084,0.916-0.137c0.754-0.286,1.397-0.754,1.931-1.404
		c0.532-0.65,0.8-1.495,0.8-2.535c0-0.676-0.092-1.248-0.273-1.716c-0.183-0.468-0.429-0.838-0.741-1.112
		c-0.312-0.273-0.683-0.468-1.111-0.585c-0.429-0.117-0.891-0.175-1.385-0.175c-1.066,0-1.82,0.052-2.262,0.156v7.566H99.186z
		 M100.512,39.095c1.092,0,1.989-0.351,2.691-1.054c0.701-0.701,1.053-1.729,1.053-3.08c0-0.858-0.117-1.541-0.352-2.048
		c-0.233-0.507-0.546-0.897-0.936-1.17s-0.839-0.448-1.346-0.526s-1.033-0.117-1.579-0.117h-1.989v7.761
		c0.208,0.078,0.565,0.137,1.072,0.176S100.096,39.095,100.512,39.095z"/>
	<path fill="#F7F7F7" d="M116.658,23.456v11.662c0,1.533,0.143,2.6,0.429,3.197c0.286,0.599,0.806,0.896,1.561,0.896
		c0.728,0,1.339-0.266,1.833-0.799c0.493-0.533,0.844-1.176,1.053-1.931V23.456h4.641v13.572c0,1.066,0.039,2.113,0.117,3.14
		c0.078,1.027,0.221,1.956,0.429,2.788h-3.51l-0.819-2.651h-0.116c-0.494,0.91-1.164,1.664-2.009,2.262
		c-0.846,0.599-1.892,0.897-3.14,0.897c-0.806,0-1.521-0.111-2.145-0.332s-1.157-0.604-1.6-1.15s-0.779-1.293-1.014-2.242
		s-0.351-2.151-0.351-3.607V23.456H116.658z"/>
	<path fill="#F7F7F7" d="M129.45,17.957c0-0.78,0.247-1.423,0.741-1.931c0.494-0.507,1.196-0.76,2.106-0.76
		c0.909,0,1.638,0.248,2.184,0.741c0.546,0.495,0.819,1.145,0.819,1.95c0,0.806-0.273,1.443-0.819,1.911
		c-0.546,0.468-1.274,0.702-2.184,0.702c-0.91,0-1.612-0.24-2.106-0.721C129.697,19.367,129.45,18.736,129.45,17.957z
		 M129.958,23.456h4.641v19.5h-4.641V23.456z"/>
	<path fill="#F7F7F7" d="M143.061,36.638c0,0.91,0.09,1.56,0.272,1.95c0.182,0.39,0.48,0.584,0.897,0.584
		c0.233,0,0.474-0.025,0.721-0.077s0.527-0.143,0.839-0.272l0.429,3.743c-0.312,0.208-0.845,0.403-1.599,0.585
		c-0.755,0.182-1.521,0.273-2.301,0.273c-1.301,0-2.275-0.326-2.925-0.975c-0.65-0.65-0.976-1.756-0.976-3.315V15.656h4.642V36.638z
		"/>
	<path fill="#F7F7F7" d="M161.819,36.092c0,1.092,0.013,2.184,0.039,3.275c0.025,1.092,0.13,2.301,0.312,3.627h-3.276l-0.624-2.262
		h-0.156c-0.884,1.82-2.431,2.73-4.641,2.73c-1.977,0-3.529-0.78-4.66-2.34c-1.132-1.561-1.697-4.096-1.697-7.605
		c0-3.432,0.611-6.038,1.833-7.819c1.223-1.781,3.042-2.672,5.46-2.672c0.624,0,1.145,0.039,1.561,0.117
		c0.415,0.078,0.819,0.208,1.209,0.39v-7.878h4.641V36.092z M154.565,39.211c0.702,0,1.261-0.175,1.677-0.525
		c0.416-0.352,0.728-0.865,0.937-1.541V27.94c-0.261-0.234-0.553-0.403-0.878-0.507c-0.325-0.104-0.747-0.156-1.268-0.156
		c-1.04,0-1.819,0.468-2.34,1.404s-0.779,2.6-0.779,4.992c0,1.794,0.214,3.166,0.643,4.114
		C152.986,38.737,153.655,39.211,154.565,39.211z"/>
	<path fill="#F7F7F7" d="M165.055,17.957c0-0.78,0.247-1.423,0.741-1.931c0.494-0.507,1.196-0.76,2.106-0.76
		c0.909,0,1.638,0.248,2.184,0.741c0.546,0.495,0.819,1.145,0.819,1.95c0,0.806-0.273,1.443-0.819,1.911
		c-0.546,0.468-1.274,0.702-2.184,0.702c-0.91,0-1.612-0.24-2.106-0.721C165.302,19.367,165.055,18.736,165.055,17.957z
		 M165.563,23.456h4.641v19.5h-4.641V23.456z"/>
	<path fill="#F7F7F7" d="M183.62,42.955V31.1c0-1.43-0.169-2.431-0.507-3.003c-0.338-0.572-0.91-0.858-1.716-0.858
		c-0.677,0-1.262,0.208-1.755,0.624c-0.494,0.416-0.846,0.936-1.053,1.56v13.533h-4.642v-19.5h3.705l0.546,2.262h0.117
		c0.468-0.754,1.104-1.397,1.911-1.931c0.806-0.533,1.858-0.799,3.159-0.799c0.779,0,1.475,0.117,2.086,0.351
		c0.611,0.234,1.125,0.618,1.541,1.151c0.415,0.533,0.728,1.248,0.936,2.145s0.312,2.008,0.312,3.334v12.986H183.62z"/>
	<path fill="#F7F7F7" d="M205.42,42.955c0,2.834-0.649,4.92-1.949,6.26c-1.301,1.339-3.107,2.009-5.422,2.009
		c-1.612,0-2.873-0.124-3.782-0.37c-0.911-0.248-1.612-0.514-2.106-0.8l0.975-3.938c0.572,0.233,1.19,0.454,1.853,0.662
		c0.663,0.208,1.449,0.312,2.36,0.312c1.325,0,2.242-0.357,2.749-1.072c0.507-0.716,0.761-1.801,0.761-3.257v-1.054h-0.117
		c-0.364,0.521-0.852,0.911-1.463,1.17c-0.61,0.26-1.397,0.391-2.359,0.391c-2.054,0-3.595-0.773-4.621-2.32
		c-1.027-1.547-1.541-3.998-1.541-7.352c0-3.614,0.708-6.279,2.126-7.995c1.417-1.716,3.438-2.574,6.064-2.574
		c1.404,0,2.665,0.111,3.783,0.332c1.117,0.221,2.015,0.488,2.69,0.8V42.955z M198.206,39.289c0.702,0,1.254-0.168,1.657-0.506
		s0.709-0.82,0.917-1.443v-9.75c-0.286-0.129-0.604-0.234-0.955-0.312c-0.352-0.078-0.761-0.117-1.229-0.117
		c-0.963,0-1.71,0.468-2.243,1.404s-0.799,2.549-0.799,4.836C195.554,37.326,196.437,39.289,198.206,39.289z"/>
	<path fill="#F7F7F7" d="M232.408,21.974c0,0.676-0.072,1.345-0.215,2.008c-0.144,0.663-0.371,1.287-0.683,1.872
		s-0.722,1.099-1.229,1.541c-0.507,0.442-1.111,0.78-1.813,1.014v0.234c0.624,0.156,1.215,0.39,1.774,0.702
		c0.559,0.312,1.046,0.735,1.463,1.268c0.415,0.533,0.747,1.183,0.994,1.95c0.247,0.767,0.37,1.67,0.37,2.71
		c0,1.404-0.24,2.62-0.721,3.646c-0.481,1.027-1.132,1.866-1.95,2.516c-0.819,0.65-1.774,1.131-2.866,1.442
		c-1.093,0.312-2.25,0.469-3.472,0.469c-0.364,0-0.832,0-1.403,0c-0.572,0-1.19-0.02-1.853-0.059
		c-0.663-0.039-1.346-0.098-2.048-0.176s-1.353-0.195-1.95-0.351v-26.91c0.858-0.156,1.917-0.292,3.179-0.41
		c1.261-0.117,2.516-0.175,3.764-0.175c1.144,0,2.242,0.091,3.295,0.273c1.054,0.182,1.976,0.521,2.77,1.014
		c0.793,0.494,1.423,1.177,1.892,2.047C232.173,19.472,232.408,20.596,232.408,21.974z M222.852,27.239
		c0.286,0,0.617-0.02,0.995-0.059c0.376-0.039,0.682-0.084,0.916-0.137c0.754-0.286,1.397-0.754,1.931-1.404
		c0.532-0.65,0.8-1.495,0.8-2.535c0-0.676-0.092-1.248-0.273-1.716c-0.183-0.468-0.429-0.838-0.741-1.112
		c-0.312-0.273-0.683-0.468-1.111-0.585c-0.429-0.117-0.891-0.175-1.385-0.175c-1.066,0-1.82,0.052-2.262,0.156v7.566H222.852z
		 M224.178,39.095c1.092,0,1.989-0.351,2.691-1.054c0.701-0.701,1.053-1.729,1.053-3.08c0-0.858-0.117-1.541-0.352-2.048
		c-0.233-0.507-0.546-0.897-0.936-1.17s-0.839-0.448-1.346-0.526s-1.033-0.117-1.579-0.117h-1.989v7.761
		c0.208,0.078,0.565,0.137,1.072,0.176S223.762,39.095,224.178,39.095z"/>
	<path fill="#F7F7F7" d="M240.558,36.638c0,0.91,0.09,1.56,0.272,1.95c0.182,0.39,0.48,0.584,0.897,0.584
		c0.233,0,0.474-0.025,0.721-0.077s0.527-0.143,0.839-0.272l0.429,3.743c-0.312,0.208-0.845,0.403-1.599,0.585
		c-0.755,0.182-1.521,0.273-2.301,0.273c-1.301,0-2.275-0.326-2.925-0.975c-0.65-0.65-0.976-1.756-0.976-3.315V15.656h4.642V36.638z
		"/>
	<path fill="#F7F7F7" d="M244.614,33.205c0-3.457,0.676-6.031,2.028-7.722c1.352-1.689,3.237-2.535,5.655-2.535
		c2.6,0,4.536,0.858,5.811,2.574c1.273,1.716,1.911,4.277,1.911,7.683c0,3.484-0.677,6.064-2.028,7.742
		c-1.352,1.677-3.25,2.516-5.693,2.516C247.174,43.463,244.614,40.044,244.614,33.205z M249.412,33.205
		c0,1.951,0.22,3.459,0.662,4.524c0.442,1.066,1.184,1.599,2.224,1.599c0.987,0,1.722-0.461,2.203-1.385
		c0.481-0.922,0.722-2.502,0.722-4.738c0-2.002-0.222-3.522-0.663-4.562c-0.442-1.04-1.196-1.56-2.262-1.56
		c-0.91,0-1.619,0.462-2.126,1.385S249.412,30.97,249.412,33.205z"/>
	<path fill="#F7F7F7" d="M274.175,41.902c-0.649,0.521-1.43,0.91-2.34,1.17s-1.82,0.391-2.729,0.391
		c-1.326,0-2.438-0.241-3.335-0.722c-0.896-0.481-1.632-1.17-2.203-2.067c-0.572-0.896-0.981-1.976-1.229-3.236
		c-0.248-1.262-0.371-2.672-0.371-4.232c0-3.405,0.611-5.966,1.833-7.683c1.223-1.716,3.017-2.574,5.383-2.574
		c1.17,0,2.125,0.104,2.866,0.312s1.397,0.468,1.97,0.78l-1.093,3.861c-0.468-0.234-0.916-0.409-1.345-0.526
		c-0.43-0.117-0.943-0.175-1.541-0.175c-1.092,0-1.911,0.475-2.457,1.423c-0.546,0.949-0.818,2.477-0.818,4.582
		c0,1.77,0.278,3.212,0.838,4.33c0.559,1.117,1.449,1.676,2.672,1.676c0.649,0,1.202-0.084,1.657-0.253s0.878-0.384,1.268-0.644
		L274.175,41.902z"/>
	<path fill="#F7F7F7" d="M282.053,34.883h-1.092v8.072h-4.642V15.656h4.642v16.107l0.936-0.546l3.237-7.761h5.031l-3.589,7.722
		l-1.677,1.326l1.833,1.326l3.979,9.125h-5.227L282.053,34.883z"/>
	<path fill="#F7F7F7" d="M298.939,37.769c0-0.546-0.175-1.007-0.526-1.384c-0.351-0.377-0.799-0.729-1.345-1.054
		c-0.547-0.325-1.125-0.656-1.736-0.995c-0.61-0.337-1.189-0.753-1.735-1.248c-0.546-0.492-0.994-1.092-1.346-1.793
		c-0.351-0.702-0.526-1.586-0.526-2.652c0-1.82,0.494-3.224,1.482-4.212c0.987-0.988,2.443-1.482,4.368-1.482
		c1.144,0,2.223,0.124,3.236,0.37c1.015,0.248,1.82,0.553,2.418,0.917l-1.092,3.588c-0.494-0.208-1.092-0.41-1.794-0.604
		c-0.702-0.195-1.391-0.292-2.066-0.292c-1.274,0-1.911,0.533-1.911,1.599c0,0.494,0.175,0.904,0.526,1.229
		c0.351,0.326,0.8,0.644,1.346,0.955c0.546,0.312,1.124,0.639,1.735,0.976c0.61,0.339,1.189,0.761,1.735,1.268
		s0.994,1.125,1.346,1.853c0.351,0.729,0.526,1.625,0.526,2.691c0,1.793-0.546,3.236-1.638,4.328
		c-1.093,1.092-2.718,1.639-4.875,1.639c-1.066,0-2.113-0.131-3.14-0.391c-1.027-0.26-1.853-0.598-2.477-1.014l1.287-3.744
		c0.546,0.312,1.176,0.585,1.892,0.819c0.715,0.233,1.462,0.351,2.242,0.351c0.598,0,1.092-0.137,1.481-0.409
		C298.745,38.803,298.939,38.367,298.939,37.769z"/>
</g>
</svg>
