<?xml version="1.0" encoding="utf-8"?>
<!-- Generated by IcoMoon.io -->
<!DOCTYPE svg PUBLIC "-//W3C//DTD SVG 1.1//EN" "http://www.w3.org/Graphics/SVG/1.1/DTD/svg11.dtd">
<svg version="1.1" xmlns="http://www.w3.org/2000/svg" xmlns:xlink="http://www.w3.org/1999/xlink" width="22" height="28" viewBox="0 0 22 28">
<g id="icomoon-ignore">
</g>
<path d="M0 18.734v-6.719q0-0.656 0.469-1.125t1.141-0.469q0.656 0 1.125 0.469t0.469 1.125v6.719q0 0.672-0.461 1.141t-1.133 0.469-1.141-0.469-0.469-1.141zM3.766 10.156q0-1.828 1-3.367t2.688-2.398l-1.109-2.047q-0.109-0.203 0.078-0.313 0.203-0.094 0.313 0.094l1.125 2.063q1.484-0.656 3.141-0.656t3.141 0.656l1.125-2.063q0.109-0.187 0.313-0.094 0.187 0.109 0.078 0.313l-1.109 2.047q1.672 0.859 2.672 2.398t1 3.367h-14.453zM3.828 21.125v-10.406h14.344v10.406q0 0.719-0.5 1.219t-1.203 0.5h-1.172v3.547q0 0.672-0.469 1.141t-1.141 0.469-1.141-0.469-0.469-1.141v-3.547h-2.156v3.547q0 0.672-0.469 1.141t-1.141 0.469q-0.656 0-1.125-0.469t-0.469-1.141l-0.016-3.547h-1.156q-0.719 0-1.219-0.5t-0.5-1.219zM7.109 6.937q0 0.25 0.172 0.43t0.422 0.18 0.43-0.18 0.18-0.43-0.18-0.43-0.43-0.18-0.422 0.18-0.172 0.43zM13.687 6.937q0 0.25 0.18 0.43t0.43 0.18 0.422-0.18 0.172-0.43-0.172-0.43-0.422-0.18-0.43 0.18-0.18 0.43zM18.797 18.734v-6.719q0-0.672 0.469-1.133t1.125-0.461q0.672 0 1.141 0.461t0.469 1.133v6.719q0 0.672-0.469 1.141t-1.141 0.469q-0.656 0-1.125-0.469t-0.469-1.141z" fill="#000000"></path>
</svg>
