<?xml version="1.0" encoding="utf-8"?>
<!-- Generated by IcoMoon.io -->
<!DOCTYPE svg PUBLIC "-//W3C//DTD SVG 1.1//EN" "http://www.w3.org/Graphics/SVG/1.1/DTD/svg11.dtd">
<svg version="1.1" xmlns="http://www.w3.org/2000/svg" xmlns:xlink="http://www.w3.org/1999/xlink" width="28" height="28" viewBox="0 0 28 28">
<g id="icomoon-ignore">
</g>
<path d="M0 13.953q0-2.453 0.953-4.68t2.555-3.836 3.828-2.562 4.664-0.953 4.664 0.953 3.828 2.562 2.555 3.836 0.953 4.68-0.953 4.688-2.555 3.844-3.828 2.562-4.664 0.953-4.664-0.953-3.828-2.562-2.555-3.844-0.953-4.688zM3.5 13.953q0 2.531 1.391 4.672l11.797-11.781q-2.109-1.422-4.688-1.422-2.312 0-4.266 1.141t-3.094 3.109-1.141 4.281zM7.359 21.109q2.141 1.391 4.641 1.391 1.734 0 3.305-0.68t2.711-1.82 1.813-2.727 0.672-3.32q0-2.516-1.359-4.609z" fill="#000000"></path>
</svg>
