<?xml version="1.0" encoding="utf-8"?>
<!-- Generated by IcoMoon.io -->
<!DOCTYPE svg PUBLIC "-//W3C//DTD SVG 1.1//EN" "http://www.w3.org/Graphics/SVG/1.1/DTD/svg11.dtd">
<svg version="1.1" xmlns="http://www.w3.org/2000/svg" xmlns:xlink="http://www.w3.org/1999/xlink" width="28" height="28" viewBox="0 0 28 28">
<g id="icomoon-ignore">
</g>
<path d="M0 24v-22h0.984v22h-0.984zM1.469 23.984v-21.984h0.5v21.984h-0.5zM2.953 23.984v-21.984h0.484v21.984h-0.484zM5.406 23.984v-21.984h0.484v21.984h-0.484zM7.375 23.984v-21.984h0.969v21.984h-0.969zM9.828 23.984v-21.984h0.484v21.984h-0.484zM10.813 23.984v-21.984h0.484v21.984h-0.484zM11.797 23.984v-21.984h0.484v21.984h-0.484zM13.75 23.984v-21.984h0.984v21.984h-0.984zM16.203 23.984v-21.984h0.984v21.984h-0.984zM18.172 23.984v-21.984h0.984v21.984h-0.984zM20.141 23.984v-21.984h0.984v21.984h-0.984zM21.609 23.984v-21.984h0.984v21.984h-0.984zM24.078 23.984v-21.984h1.469v21.984h-1.469zM26.031 23.984v-21.984h0.5v21.984h-0.5zM27.016 24v-22h0.984v22h-0.984z" fill="#000000"></path>
</svg>
