<?xml version="1.0" encoding="utf-8"?>
<!-- Generated by IcoMoon.io -->
<!DOCTYPE svg PUBLIC "-//W3C//DTD SVG 1.1//EN" "http://www.w3.org/Graphics/SVG/1.1/DTD/svg11.dtd">
<svg version="1.1" xmlns="http://www.w3.org/2000/svg" xmlns:xlink="http://www.w3.org/1999/xlink" width="26" height="28" viewBox="0 0 26 28">
<g id="icomoon-ignore">
</g>
<path d="M0 22q2.969-2.516 4.484-6.211t1.516-7.789q0-2.578 1.5-4.094t4.125-1.828q-0.125-0.281-0.125-0.578 0-0.625 0.438-1.062t1.062-0.438 1.062 0.438 0.438 1.062q0 0.297-0.125 0.578 2.625 0.313 4.125 1.828t1.5 4.094q0 4.094 1.516 7.789t4.484 6.211q0 0.812-0.594 1.406t-1.406 0.594h-7q0 1.656-1.172 2.828t-2.828 1.172-2.828-1.172-1.172-2.828h-7q-0.812 0-1.406-0.594t-0.594-1.406zM10.25 24q0 1.141 0.805 1.945t1.945 0.805q0.25 0 0.25-0.25t-0.25-0.25q-0.922 0-1.586-0.664t-0.664-1.586q0-0.25-0.25-0.25t-0.25 0.25z" fill="#000000"></path>
</svg>
