<?xml version="1.0" encoding="utf-8"?>
<!-- Generated by IcoMoon.io -->
<!DOCTYPE svg PUBLIC "-//W3C//DTD SVG 1.1//EN" "http://www.w3.org/Graphics/SVG/1.1/DTD/svg11.dtd">
<svg version="1.1" xmlns="http://www.w3.org/2000/svg" xmlns:xlink="http://www.w3.org/1999/xlink" width="30" height="28" viewBox="0 0 30 28">
<g id="icomoon-ignore">
</g>
<path d="M0 22v-14q0-1.656 1.172-2.828t2.828-1.172h3.5l0.797-2.125q0.297-0.766 1.086-1.32t1.617-0.555h8q0.828 0 1.617 0.555t1.086 1.32l0.797 2.125h3.5q1.656 0 2.828 1.172t1.172 2.828v14q0 1.656-1.172 2.828t-2.828 1.172h-22q-1.656 0-2.828-1.172t-1.172-2.828zM8 15q0 2.891 2.055 4.945t4.945 2.055 4.945-2.055 2.055-4.945-2.055-4.945-4.945-2.055-4.945 2.055-2.055 4.945zM10.5 15q0-1.859 1.32-3.18t3.18-1.32 3.18 1.32 1.32 3.18-1.32 3.18-3.18 1.32-3.18-1.32-1.32-3.18z" fill="#000000"></path>
</svg>
