<?xml version="1.0" encoding="utf-8"?>
<!-- Generated by IcoMoon.io -->
<!DOCTYPE svg PUBLIC "-//W3C//DTD SVG 1.1//EN" "http://www.w3.org/Graphics/SVG/1.1/DTD/svg11.dtd">
<svg version="1.1" xmlns="http://www.w3.org/2000/svg" xmlns:xlink="http://www.w3.org/1999/xlink" width="30" height="28" viewBox="0 0 30 28">
<g id="icomoon-ignore">
</g>
<path d="M0 22h28q0 1.656-1.172 2.828t-2.828 1.172h-20q-1.656 0-2.828-1.172t-1.172-2.828zM4 16.5v-11.5q0-0.406 0.297-0.703t0.703-0.297h18q2.484 0 4.242 1.758t1.758 4.242-1.758 4.242-4.242 1.758h-1v0.5q0 1.437-1.031 2.469t-2.469 1.031h-11q-1.437 0-2.469-1.031t-1.031-2.469zM22 13h1q1.25 0 2.125-0.875t0.875-2.125-0.875-2.125-2.125-0.875h-1v6z" fill="#000000"></path>
</svg>
