<?xml version="1.0" encoding="utf-8"?>
<!-- Generated by IcoMoon.io -->
<!DOCTYPE svg PUBLIC "-//W3C//DTD SVG 1.1//EN" "http://www.w3.org/Graphics/SVG/1.1/DTD/svg11.dtd">
<svg version="1.1" xmlns="http://www.w3.org/2000/svg" xmlns:xlink="http://www.w3.org/1999/xlink" width="28" height="28" viewBox="0 0 28 28">
<g id="icomoon-ignore">
</g>
<path d="M0 24v-2.656q1.859 1.313 5.078 1.984t6.922 0.672 6.922-0.672 5.078-1.984v2.656q0 1.078-1.609 2t-4.375 1.461-6.016 0.539-6.016-0.539-4.375-1.461-1.609-2zM0 18v-2.656q1.859 1.313 5.078 1.984t6.922 0.672 6.922-0.672 5.078-1.984v2.656q0 1.078-1.609 2t-4.375 1.461-6.016 0.539-6.016-0.539-4.375-1.461-1.609-2zM0 12v-2.656q1.859 1.313 5.078 1.984t6.922 0.672 6.922-0.672 5.078-1.984v2.656q0 1.078-1.609 2t-4.375 1.461-6.016 0.539-6.016-0.539-4.375-1.461-1.609-2zM0 6v-2q0-1.078 1.609-2t4.375-1.461 6.016-0.539 6.016 0.539 4.375 1.461 1.609 2v2q0 1.078-1.609 2t-4.375 1.461-6.016 0.539-6.016-0.539-4.375-1.461-1.609-2z" fill="#000000"></path>
</svg>
