<?xml version="1.0" encoding="utf-8"?>
<!-- Generated by IcoMoon.io -->
<!DOCTYPE svg PUBLIC "-//W3C//DTD SVG 1.1//EN" "http://www.w3.org/Graphics/SVG/1.1/DTD/svg11.dtd">
<svg version="1.1" xmlns="http://www.w3.org/2000/svg" xmlns:xlink="http://www.w3.org/1999/xlink" width="28" height="28" viewBox="0 0 28 28">
<g id="icomoon-ignore">
</g>
<path d="M0 14q0-3.266 1.609-6.023t4.367-4.367 6.023-1.609 6.023 1.609 4.367 4.367 1.609 6.023-1.609 6.023-4.367 4.367-6.023 1.609-6.023-1.609-4.367-4.367-1.609-6.023zM9.75 6.406l0.266 9.703q0 0.156 0.156 0.273t0.375 0.117h2.891q0.219 0 0.367-0.117t0.164-0.273l0.281-9.703q0-0.187-0.156-0.281-0.156-0.125-0.375-0.125h-3.437q-0.219 0-0.375 0.125-0.156 0.094-0.156 0.281zM10 21.484q0 0.203 0.156 0.359t0.359 0.156h3q0.203 0 0.344-0.148t0.141-0.367v-2.969q0-0.219-0.141-0.367t-0.344-0.148h-3q-0.203 0-0.359 0.156t-0.156 0.359v2.969z" fill="#000000"></path>
</svg>
