<?xml version="1.0" encoding="utf-8"?>
<!-- Generated by IcoMoon.io -->
<!DOCTYPE svg PUBLIC "-//W3C//DTD SVG 1.1//EN" "http://www.w3.org/Graphics/SVG/1.1/DTD/svg11.dtd">
<svg version="1.1" xmlns="http://www.w3.org/2000/svg" xmlns:xlink="http://www.w3.org/1999/xlink" width="30" height="28" viewBox="0 0 30 28">
<g id="icomoon-ignore">
</g>
<path d="M0 25.5v-21q0-1.031 0.734-1.766t1.766-0.734h25q1.031 0 1.766 0.734t0.734 1.766v21q0 1.031-0.734 1.766t-1.766 0.734h-25q-1.031 0-1.766-0.734t-0.734-1.766zM2 23v2q0 0.406 0.297 0.703t0.703 0.297h2q0.406 0 0.703-0.297t0.297-0.703v-2q0-0.406-0.297-0.703t-0.703-0.297h-2q-0.406 0-0.703 0.297t-0.297 0.703zM2 19q0 0.406 0.297 0.703t0.703 0.297h2q0.406 0 0.703-0.297t0.297-0.703v-2q0-0.406-0.297-0.703t-0.703-0.297h-2q-0.406 0-0.703 0.297t-0.297 0.703v2zM2 13q0 0.406 0.297 0.703t0.703 0.297h2q0.406 0 0.703-0.297t0.297-0.703v-2q0-0.406-0.297-0.703t-0.703-0.297h-2q-0.406 0-0.703 0.297t-0.297 0.703v2zM2 7q0 0.406 0.297 0.703t0.703 0.297h2q0.406 0 0.703-0.297t0.297-0.703v-2q0-0.406-0.297-0.703t-0.703-0.297h-2q-0.406 0-0.703 0.297t-0.297 0.703v2zM8 25q0 0.406 0.297 0.703t0.703 0.297h12q0.406 0 0.703-0.297t0.297-0.703v-8q0-0.406-0.297-0.703t-0.703-0.297h-12q-0.406 0-0.703 0.297t-0.297 0.703v8zM8 13q0 0.406 0.297 0.703t0.703 0.297h12q0.406 0 0.703-0.297t0.297-0.703v-8q0-0.406-0.297-0.703t-0.703-0.297h-12q-0.406 0-0.703 0.297t-0.297 0.703v8zM24 23v2q0 0.406 0.297 0.703t0.703 0.297h2q0.406 0 0.703-0.297t0.297-0.703v-2q0-0.406-0.297-0.703t-0.703-0.297h-2q-0.406 0-0.703 0.297t-0.297 0.703zM24 19q0 0.406 0.297 0.703t0.703 0.297h2q0.406 0 0.703-0.297t0.297-0.703v-2q0-0.406-0.297-0.703t-0.703-0.297h-2q-0.406 0-0.703 0.297t-0.297 0.703v2zM24 13q0 0.406 0.297 0.703t0.703 0.297h2q0.406 0 0.703-0.297t0.297-0.703v-2q0-0.406-0.297-0.703t-0.703-0.297h-2q-0.406 0-0.703 0.297t-0.297 0.703v2zM24 7q0 0.406 0.297 0.703t0.703 0.297h2q0.406 0 0.703-0.297t0.297-0.703v-2q0-0.406-0.297-0.703t-0.703-0.297h-2q-0.406 0-0.703 0.297t-0.297 0.703v2z" fill="#000000"></path>
</svg>
