<?xml version="1.0" encoding="utf-8"?>
<!-- Generated by IcoMoon.io -->
<!DOCTYPE svg PUBLIC "-//W3C//DTD SVG 1.1//EN" "http://www.w3.org/Graphics/SVG/1.1/DTD/svg11.dtd">
<svg version="1.1" xmlns="http://www.w3.org/2000/svg" xmlns:xlink="http://www.w3.org/1999/xlink" width="26" height="28" viewBox="0 0 26 28">
<g id="icomoon-ignore">
</g>
<path d="M0 14q0-1.172 0.828-2l9.172-9.172q0.828-0.828 2-0.828t2 0.828l4.141 4.141-6.219 6.234-2.938-2.938q-0.656-0.656-1.547-0.656-0.922 0-1.563 0.641l-1.875 1.891q-0.656 0.625-0.656 1.547 0 0.906 0.656 1.563l6.344 6.375q0.469 0.438 1.047 0.578l0.094 0.063h0.438q0.938 0 1.547-0.641l9.672-9.672 0.031 0.047q0.828 0.828 0.828 2t-0.828 2l-9.172 9.172q-0.812 0.828-1.992 0.828t-2.008-0.828l-9.172-9.172q-0.828-0.828-0.828-2zM4.719 13.687q0-0.328 0.219-0.547l1.891-1.875q0.203-0.234 0.547-0.234t0.562 0.234l3.938 3.938 8.969-8.984q0.234-0.234 0.562-0.234t0.562 0.234l1.875 1.875q0.219 0.234 0.219 0.562t-0.219 0.562l-11.406 11.406q-0.266 0.234-0.578 0.234-0.063 0-0.094-0.016-0.281-0.031-0.469-0.219l-6.359-6.375q-0.219-0.234-0.219-0.562z" fill="#000000"></path>
</svg>
