<?xml version="1.0" encoding="utf-8"?>
<!-- Generated by IcoMoon.io -->
<!DOCTYPE svg PUBLIC "-//W3C//DTD SVG 1.1//EN" "http://www.w3.org/Graphics/SVG/1.1/DTD/svg11.dtd">
<svg version="1.1" xmlns="http://www.w3.org/2000/svg" xmlns:xlink="http://www.w3.org/1999/xlink" width="28" height="28" viewBox="0 0 28 28">
<g id="icomoon-ignore">
</g>
<path d="M0 15.5v-5q0-0.219 0.141-0.359t0.359-0.141h6.875q-1.453 0-2.477-1.023t-1.023-2.477 1.023-2.477 2.477-1.023q1.672 0 2.625 1.203l2 2.578 2-2.578q0.953-1.203 2.625-1.203 1.453 0 2.477 1.023t1.023 2.477-1.023 2.477-2.477 1.023h6.875q0.219 0 0.359 0.141t0.141 0.359v5q0 0.219-0.141 0.359t-0.359 0.141h-1.5v6.5q0 0.625-0.438 1.062t-1.062 0.438h-17q-0.625 0-1.062-0.438t-0.438-1.062v-6.5h-1.5q-0.219 0-0.359-0.141t-0.141-0.359zM5.875 6.5q0 0.625 0.438 1.062t1.062 0.438h3.047l-1.969-2.516q-0.406-0.484-1.078-0.484-0.625 0-1.062 0.438t-0.438 1.062zM9.5 21.187q0 0.391 0.281 0.602t0.719 0.211h3q0.438 0 0.719-0.211t0.281-0.602v-11.188h-5v11.188zM13.594 8h3.031q0.625 0 1.062-0.438t0.438-1.062-0.438-1.062-1.062-0.438q-0.672 0-1.078 0.484z" fill="#000000"></path>
</svg>
