<?xml version="1.0" encoding="utf-8"?>
<!-- Generated by IcoMoon.io -->
<!DOCTYPE svg PUBLIC "-//W3C//DTD SVG 1.1//EN" "http://www.w3.org/Graphics/SVG/1.1/DTD/svg11.dtd">
<svg version="1.1" xmlns="http://www.w3.org/2000/svg" xmlns:xlink="http://www.w3.org/1999/xlink" width="28" height="28" viewBox="0 0 28 28">
<g id="icomoon-ignore">
</g>
<path d="M0 21.5v-15q0-1.859 1.32-3.18t3.18-1.32h15q1.859 0 3.18 1.32t1.32 3.18v15q0 1.859-1.32 3.18t-3.18 1.32h-15q-1.859 0-3.18-1.32t-1.32-3.18zM4 21q0 0.406 0.297 0.703t0.703 0.297h2q0.406 0 0.703-0.297t0.297-0.703v-5h8v5q0 0.406 0.297 0.703t0.703 0.297h2q0.406 0 0.703-0.297t0.297-0.703v-14q0-0.406-0.297-0.703t-0.703-0.297h-2q-0.406 0-0.703 0.297t-0.297 0.703v5h-8v-5q0-0.406-0.297-0.703t-0.703-0.297h-2q-0.406 0-0.703 0.297t-0.297 0.703v14z" fill="#000000"></path>
</svg>
