<?xml version="1.0" encoding="utf-8"?>
<!-- Generated by IcoMoon.io -->
<!DOCTYPE svg PUBLIC "-//W3C//DTD SVG 1.1//EN" "http://www.w3.org/Graphics/SVG/1.1/DTD/svg11.dtd">
<svg version="1.1" xmlns="http://www.w3.org/2000/svg" xmlns:xlink="http://www.w3.org/1999/xlink" width="32" height="28" viewBox="0 0 32 28">
<g id="icomoon-ignore">
</g>
<path d="M0 26q0-0.406 0.32-0.703t0.758-0.297h27.844q0.438 0 0.758 0.297t0.32 0.703v2h-30v-2zM0 8v-2l15-6 15 6v2h-2q0 0.406-0.32 0.703t-0.758 0.297h-23.844q-0.438 0-0.758-0.297t-0.32-0.703h-2zM2 24v-1q0-0.406 0.32-0.703t0.758-0.297h0.922v-12h4v12h2v-12h4v12h2v-12h4v12h2v-12h4v12h0.922q0.438 0 0.758 0.297t0.32 0.703v1h-26z" fill="#000000"></path>
</svg>
