<?xml version="1.0" encoding="utf-8"?>
<!-- Generated by IcoMoon.io -->
<!DOCTYPE svg PUBLIC "-//W3C//DTD SVG 1.1//EN" "http://www.w3.org/Graphics/SVG/1.1/DTD/svg11.dtd">
<svg version="1.1" xmlns="http://www.w3.org/2000/svg" xmlns:xlink="http://www.w3.org/1999/xlink" width="30" height="28" viewBox="0 0 30 28">
<g id="icomoon-ignore">
</g>
<path d="M0 22v-14q0-0.828 0.586-1.414t1.414-0.586h26q0.828 0 1.414 0.586t0.586 1.414v14q0 0.828-0.586 1.414t-1.414 0.586h-26q-0.828 0-1.414-0.586t-0.586-1.414zM2 22h26v-14h-26v14zM4 19.75v-1.5q0-0.25 0.25-0.25h1.5q0.25 0 0.25 0.25v1.5q0 0.25-0.25 0.25h-1.5q-0.25 0-0.25-0.25zM4 15.75v-1.5q0-0.25 0.25-0.25h3.5q0.25 0 0.25 0.25v1.5q0 0.25-0.25 0.25h-3.5q-0.25 0-0.25-0.25zM4 11.75v-1.5q0-0.25 0.25-0.25h1.5q0.25 0 0.25 0.25v1.5q0 0.25-0.25 0.25h-1.5q-0.25 0-0.25-0.25zM8 19.75v-1.5q0-0.25 0.25-0.25h13.5q0.25 0 0.25 0.25v1.5q0 0.25-0.25 0.25h-13.5q-0.25 0-0.25-0.25zM8 11.75v-1.5q0-0.25 0.25-0.25h1.5q0.25 0 0.25 0.25v1.5q0 0.25-0.25 0.25h-1.5q-0.25 0-0.25-0.25zM10 15.75v-1.5q0-0.25 0.25-0.25h1.5q0.25 0 0.25 0.25v1.5q0 0.25-0.25 0.25h-1.5q-0.25 0-0.25-0.25zM12 11.75v-1.5q0-0.25 0.25-0.25h1.5q0.25 0 0.25 0.25v1.5q0 0.25-0.25 0.25h-1.5q-0.25 0-0.25-0.25zM14 15.75v-1.5q0-0.25 0.25-0.25h1.5q0.25 0 0.25 0.25v1.5q0 0.25-0.25 0.25h-1.5q-0.25 0-0.25-0.25zM16 11.75v-1.5q0-0.25 0.25-0.25h1.5q0.25 0 0.25 0.25v1.5q0 0.25-0.25 0.25h-1.5q-0.25 0-0.25-0.25zM18 15.75v-1.5q0-0.25 0.25-0.25h1.5q0.25 0 0.25 0.25v1.5q0 0.25-0.25 0.25h-1.5q-0.25 0-0.25-0.25zM20 11.75v-1.5q0-0.25 0.25-0.25h1.5q0.25 0 0.25 0.25v1.5q0 0.25-0.25 0.25h-1.5q-0.25 0-0.25-0.25zM22 15.75v-1.5q0-0.25 0.25-0.25h1.75v-3.75q0-0.25 0.25-0.25h1.5q0.25 0 0.25 0.25v5.5q0 0.25-0.25 0.25h-3.5q-0.25 0-0.25-0.25zM24 19.75v-1.5q0-0.25 0.25-0.25h1.5q0.25 0 0.25 0.25v1.5q0 0.25-0.25 0.25h-1.5q-0.25 0-0.25-0.25z" fill="#000000"></path>
</svg>
