<?xml version="1.0" encoding="utf-8"?>
<!-- Generated by IcoMoon.io -->
<!DOCTYPE svg PUBLIC "-//W3C//DTD SVG 1.1//EN" "http://www.w3.org/Graphics/SVG/1.1/DTD/svg11.dtd">
<svg version="1.1" xmlns="http://www.w3.org/2000/svg" xmlns:xlink="http://www.w3.org/1999/xlink" width="28" height="28" viewBox="0 0 28 28">
<g id="icomoon-ignore">
</g>
<path d="M0 21.5v-17q0-1.031 0.734-1.766t1.766-0.734h23q1.031 0 1.766 0.734t0.734 1.766v17q0 1.031-0.734 1.766t-1.766 0.734h-23q-1.031 0-1.766-0.734t-0.734-1.766zM2 21.5q0 0.203 0.148 0.352t0.352 0.148h23q0.203 0 0.352-0.148t0.148-0.352v-13q0-0.203-0.148-0.352t-0.352-0.148h-23q-0.203 0-0.352 0.148t-0.148 0.352v13zM4 19.5v-1q0-0.203 0.148-0.352t0.352-0.148h1q0.203 0 0.352 0.148t0.148 0.352v1q0 0.203-0.148 0.352t-0.352 0.148h-1q-0.203 0-0.352-0.148t-0.148-0.352zM4 15.5v-1q0-0.203 0.148-0.352t0.352-0.148h1q0.203 0 0.352 0.148t0.148 0.352v1q0 0.203-0.148 0.352t-0.352 0.148h-1q-0.203 0-0.352-0.148t-0.148-0.352zM4 11.5v-1q0-0.203 0.148-0.352t0.352-0.148h1q0.203 0 0.352 0.148t0.148 0.352v1q0 0.203-0.148 0.352t-0.352 0.148h-1q-0.203 0-0.352-0.148t-0.148-0.352zM8 19.5v-1q0-0.203 0.148-0.352t0.352-0.148h15q0.203 0 0.352 0.148t0.148 0.352v1q0 0.203-0.148 0.352t-0.352 0.148h-15q-0.203 0-0.352-0.148t-0.148-0.352zM8 15.5v-1q0-0.203 0.148-0.352t0.352-0.148h15q0.203 0 0.352 0.148t0.148 0.352v1q0 0.203-0.148 0.352t-0.352 0.148h-15q-0.203 0-0.352-0.148t-0.148-0.352zM8 11.5v-1q0-0.203 0.148-0.352t0.352-0.148h15q0.203 0 0.352 0.148t0.148 0.352v1q0 0.203-0.148 0.352t-0.352 0.148h-15q-0.203 0-0.352-0.148t-0.148-0.352z" fill="#000000"></path>
</svg>
