<?xml version="1.0" encoding="utf-8"?>
<!-- Generated by IcoMoon.io -->
<!DOCTYPE svg PUBLIC "-//W3C//DTD SVG 1.1//EN" "http://www.w3.org/Graphics/SVG/1.1/DTD/svg11.dtd">
<svg version="1.1" xmlns="http://www.w3.org/2000/svg" xmlns:xlink="http://www.w3.org/1999/xlink" width="28" height="28" viewBox="0 0 28 28">
<g id="icomoon-ignore">
</g>
<path d="M0 22q0-1.25 0.875-2.125t2.125-0.875 2.125 0.875 0.875 2.125-0.875 2.125-2.125 0.875-2.125-0.875-0.875-2.125zM0 14q0-1.25 0.875-2.125t2.125-0.875 2.125 0.875 0.875 2.125-0.875 2.125-2.125 0.875-2.125-0.875-0.875-2.125zM0 6q0-1.25 0.875-2.125t2.125-0.875 2.125 0.875 0.875 2.125-0.875 2.125-2.125 0.875-2.125-0.875-0.875-2.125zM8 23.5v-3q0-0.203 0.148-0.352t0.352-0.148h19q0.203 0 0.352 0.148t0.148 0.352v3q0 0.203-0.148 0.352t-0.352 0.148h-19q-0.203 0-0.352-0.148t-0.148-0.352zM8 15.5v-3q0-0.203 0.148-0.352t0.352-0.148h19q0.203 0 0.352 0.148t0.148 0.352v3q0 0.203-0.148 0.352t-0.352 0.148h-19q-0.203 0-0.352-0.148t-0.148-0.352zM8 7.5v-3q0-0.203 0.148-0.352t0.352-0.148h19q0.203 0 0.352 0.148t0.148 0.352v3q0 0.203-0.148 0.352t-0.352 0.148h-19q-0.203 0-0.352-0.148t-0.148-0.352z" fill="#000000"></path>
</svg>
