<?xml version="1.0" encoding="utf-8"?>
<!-- Generated by IcoMoon.io -->
<!DOCTYPE svg PUBLIC "-//W3C//DTD SVG 1.1//EN" "http://www.w3.org/Graphics/SVG/1.1/DTD/svg11.dtd">
<svg version="1.1" xmlns="http://www.w3.org/2000/svg" xmlns:xlink="http://www.w3.org/1999/xlink" width="28" height="28" viewBox="0 0 28 28">
<g id="icomoon-ignore">
</g>
<path d="M0 20.984v-13.969q0-2.078 1.469-3.547t3.531-1.469h14q2.063 0 3.531 1.469t1.469 3.547v13.969q0 2.078-1.469 3.547t-3.531 1.469h-14q-2.063 0-3.531-1.469t-1.469-3.547zM2.422 12.922q0 0.578 0.305 1.055t0.82 0.711q-0.109 0.391-0.109 0.844 0 1.531 1.156 2.836t3.148 2.063 4.352 0.758q2.344 0 4.336-0.758t3.148-2.063 1.156-2.836q0-0.422-0.094-0.844 0.547-0.219 0.891-0.711t0.344-1.102q0-0.797-0.562-1.367t-1.359-0.57q-0.938 0-1.531 0.75-2.359-1.672-5.859-1.797l1.297-4.141 3.219 0.766q0.016 0.781 0.57 1.328t1.32 0.547q0.781 0 1.344-0.555t0.562-1.336-0.562-1.344-1.344-0.562q-0.562 0-1.031 0.32t-0.703 0.836l-3.547-0.844q-0.141-0.031-0.273 0.039t-0.18 0.227l-1.484 4.719q-3.5 0.063-5.953 1.766-0.562-0.672-1.453-0.672-0.797 0-1.359 0.57t-0.562 1.367zM7.703 14.422q0-0.578 0.406-0.984t0.984-0.406 0.984 0.406 0.406 0.984-0.406 1-0.984 0.422-0.984-0.422-0.406-1zM8.75 18.141q0-0.172 0.125-0.281 0.109-0.109 0.273-0.109t0.273 0.109q0.766 0.797 2.688 0.797h0.031q1.906 0 2.703-0.797 0.109-0.109 0.273-0.109t0.273 0.109 0.109 0.281-0.109 0.281q-1.016 1-3.25 1h-0.031q-2.234 0-3.234-1-0.125-0.109-0.125-0.281zM13.781 14.422q0-0.578 0.406-0.984t0.984-0.406 0.984 0.406 0.406 0.984-0.406 1-0.984 0.422-0.984-0.422-0.406-1zM17.859 6.5q0-0.469 0.328-0.797t0.781-0.328q0.469 0 0.797 0.328t0.328 0.797q0 0.453-0.328 0.781t-0.797 0.328q-0.453 0-0.781-0.328t-0.328-0.781z" fill="#000000"></path>
</svg>
