<?xml version="1.0" encoding="utf-8"?>
<!-- Generated by IcoMoon.io -->
<!DOCTYPE svg PUBLIC "-//W3C//DTD SVG 1.1//EN" "http://www.w3.org/Graphics/SVG/1.1/DTD/svg11.dtd">
<svg version="1.1" xmlns="http://www.w3.org/2000/svg" xmlns:xlink="http://www.w3.org/1999/xlink" width="31" height="28" viewBox="0 0 31 28">
<g id="icomoon-ignore">
</g>
<path d="M0 12.719q0-1.469 1.031-2.5t2.5-1.031q1.297 0 2.312 0.859 3.875-2.469 9.25-2.562l2.094-6.609q0.063-0.219 0.273-0.336t0.445-0.070l5.422 1.281q0.344-0.781 1.070-1.266t1.602-0.484q1.203 0 2.055 0.852t0.852 2.055-0.852 2.063-2.055 0.859q-1.188 0-2.039-0.844t-0.867-2.047l-4.922-1.156-1.813 5.719q5.109 0.219 8.75 2.594 1-0.906 2.359-0.906 1.469 0 2.5 1.031t1.031 2.5q0 0.969-0.484 1.781t-1.297 1.281q0.078 0.516 0.078 0.953 0 1.891-1.070 3.602t-3.086 3.023q-1.953 1.281-4.461 1.961t-5.242 0.68q-2.75 0-5.258-0.68t-4.445-1.961q-2.016-1.313-3.086-3.016t-1.070-3.609q0-0.453 0.078-1.031-0.75-0.484-1.203-1.273t-0.453-1.711zM1.203 12.719q0 1.047 0.797 1.734 0.766-2.047 2.812-3.672-0.562-0.391-1.281-0.391-0.969 0-1.648 0.68t-0.68 1.648zM2.781 16.734q0 1.578 0.93 3.031t2.68 2.594q1.813 1.172 4.148 1.805t4.898 0.633 4.898-0.633 4.148-1.805q1.75-1.141 2.68-2.594t0.93-3.031-0.93-3.023-2.68-2.586q-1.813-1.172-4.148-1.805t-4.898-0.633-4.898 0.633-4.148 1.805q-1.75 1.141-2.68 2.586t-0.93 3.023zM8.672 15.062q0-0.891 0.648-1.531t1.523-0.641 1.508 0.641 0.633 1.531q0 0.875-0.633 1.5t-1.508 0.625q-0.891 0-1.531-0.625t-0.641-1.5zM10.328 20.727q0-0.258 0.172-0.43t0.422-0.172 0.422 0.172q1.203 1.203 4.141 1.203h0.031q2.938 0 4.141-1.203 0.172-0.172 0.422-0.172t0.422 0.172 0.172 0.43-0.172 0.43q-1.547 1.547-4.984 1.547h-0.031q-3.437 0-4.984-1.547-0.172-0.172-0.172-0.43zM18.016 15.062q0-0.891 0.648-1.531t1.523-0.641 1.508 0.641 0.633 1.531q0 0.875-0.633 1.5t-1.508 0.625q-0.891 0-1.531-0.625t-0.641-1.5zM24.297 2.906q0 0.703 0.5 1.203t1.203 0.5 1.203-0.5 0.5-1.203-0.5-1.203-1.203-0.5-1.203 0.5-0.5 1.203zM26.125 10.828q2.047 1.641 2.781 3.719 0.891-0.719 0.891-1.828 0-0.969-0.68-1.648t-1.648-0.68q-0.766 0-1.344 0.438z" fill="#000000"></path>
</svg>
