<?xml version="1.0" encoding="utf-8"?>
<!-- Generated by IcoMoon.io -->
<!DOCTYPE svg PUBLIC "-//W3C//DTD SVG 1.1//EN" "http://www.w3.org/Graphics/SVG/1.1/DTD/svg11.dtd">
<svg version="1.1" xmlns="http://www.w3.org/2000/svg" xmlns:xlink="http://www.w3.org/1999/xlink" width="28" height="28" viewBox="0 0 28 28">
<g id="icomoon-ignore">
</g>
<path d="M0 24.5v-21q0-0.625 0.438-1.062t1.062-0.438h14.5q0.625 0 1.375 0.313t1.188 0.75l4.375 4.375q0.438 0.438 0.75 1.188t0.313 1.375v14.5q0 0.625-0.438 1.062t-1.062 0.438h-21q-0.625 0-1.062-0.438t-0.438-1.062zM2 24h2v-6.5q0-0.625 0.438-1.062t1.062-0.438h13q0.625 0 1.062 0.438t0.438 1.062v6.5h2v-14q0-0.219-0.156-0.602t-0.313-0.539l-4.391-4.391q-0.156-0.156-0.531-0.313t-0.609-0.156v6.5q0 0.625-0.438 1.062t-1.062 0.438h-9q-0.625 0-1.062-0.438t-0.438-1.062v-6.5h-2v20zM6 24h12v-6h-12v6zM10 9.5q0 0.203 0.148 0.352t0.352 0.148h3q0.203 0 0.352-0.148t0.148-0.352v-5q0-0.203-0.148-0.352t-0.352-0.148h-3q-0.203 0-0.352 0.148t-0.148 0.352v5z" fill="#000000"></path>
</svg>
