<?xml version="1.0" encoding="utf-8"?>
<!-- Generated by IcoMoon.io -->
<!DOCTYPE svg PUBLIC "-//W3C//DTD SVG 1.1//EN" "http://www.w3.org/Graphics/SVG/1.1/DTD/svg11.dtd">
<svg version="1.1" xmlns="http://www.w3.org/2000/svg" xmlns:xlink="http://www.w3.org/1999/xlink" width="28" height="28" viewBox="0 0 28 28">
<g id="icomoon-ignore">
</g>
<path d="M0 25.5v-3q0-0.219 0.141-0.359t0.359-0.141h3q0.219 0 0.359 0.141t0.141 0.359v3q0 0.219-0.141 0.359t-0.359 0.141h-3q-0.219 0-0.359-0.141t-0.141-0.359zM6 25.5v-5q0-0.219 0.141-0.359t0.359-0.141h3q0.219 0 0.359 0.141t0.141 0.359v5q0 0.219-0.141 0.359t-0.359 0.141h-3q-0.219 0-0.359-0.141t-0.141-0.359zM12 25.5v-9q0-0.219 0.141-0.359t0.359-0.141h3q0.219 0 0.359 0.141t0.141 0.359v9q0 0.219-0.141 0.359t-0.359 0.141h-3q-0.219 0-0.359-0.141t-0.141-0.359zM18 25.5v-15q0-0.219 0.141-0.359t0.359-0.141h3q0.219 0 0.359 0.141t0.141 0.359v15q0 0.219-0.141 0.359t-0.359 0.141h-3q-0.219 0-0.359-0.141t-0.141-0.359zM24 25.5v-23q0-0.219 0.141-0.359t0.359-0.141h3q0.219 0 0.359 0.141t0.141 0.359v23q0 0.219-0.141 0.359t-0.359 0.141h-3q-0.219 0-0.359-0.141t-0.141-0.359z" fill="#000000"></path>
</svg>
