<?xml version="1.0" encoding="utf-8"?>
<!-- Generated by IcoMoon.io -->
<!DOCTYPE svg PUBLIC "-//W3C//DTD SVG 1.1//EN" "http://www.w3.org/Graphics/SVG/1.1/DTD/svg11.dtd">
<svg version="1.1" xmlns="http://www.w3.org/2000/svg" xmlns:xlink="http://www.w3.org/1999/xlink" width="28" height="28" viewBox="0 0 28 28">
<g id="icomoon-ignore">
</g>
<path d="M0 12.5v-1q0-0.625 0.438-1.062t1.062-0.438h5q0.625 0 1.062 0.438t0.438 1.062v1q0 0.625-0.438 1.062t-1.062 0.438h-5q-0.625 0-1.062-0.438t-0.438-1.062zM2 25.5v-10.5h4v10.5q0 0.219-0.141 0.359t-0.359 0.141h-3q-0.219 0-0.359-0.141t-0.141-0.359zM2 9v-6.5q0-0.219 0.141-0.359t0.359-0.141h3q0.219 0 0.359 0.141t0.141 0.359v6.5h-4zM8 20.5v-1q0-0.625 0.438-1.062t1.062-0.438h5q0.625 0 1.062 0.438t0.438 1.062v1q0 0.625-0.438 1.062t-1.062 0.438h-5q-0.625 0-1.062-0.438t-0.438-1.062zM10 23h4v2.5q0 0.219-0.141 0.359t-0.359 0.141h-3q-0.219 0-0.359-0.141t-0.141-0.359v-2.5zM10 17v-14.5q0-0.219 0.141-0.359t0.359-0.141h3q0.219 0 0.359 0.141t0.141 0.359v14.5h-4zM16 8.5v-1q0-0.625 0.438-1.062t1.062-0.438h5q0.625 0 1.062 0.438t0.438 1.062v1q0 0.625-0.438 1.062t-1.062 0.438h-5q-0.625 0-1.062-0.438t-0.438-1.062zM18 25.5v-14.5h4v14.5q0 0.219-0.141 0.359t-0.359 0.141h-3q-0.219 0-0.359-0.141t-0.141-0.359zM18 5v-2.5q0-0.219 0.141-0.359t0.359-0.141h3q0.219 0 0.359 0.141t0.141 0.359v2.5h-4z" fill="#000000"></path>
</svg>
