<?xml version="1.0" encoding="utf-8"?>
<!-- Generated by IcoMoon.io -->
<!DOCTYPE svg PUBLIC "-//W3C//DTD SVG 1.1//EN" "http://www.w3.org/Graphics/SVG/1.1/DTD/svg11.dtd">
<svg version="1.1" xmlns="http://www.w3.org/2000/svg" xmlns:xlink="http://www.w3.org/1999/xlink" width="22" height="28" viewBox="0 0 22 28">
<g id="icomoon-ignore">
</g>
<path d="M0 27.984v-11.5h1.891v9.656h14.5v-9.656h1.875v10.953l-0.016 0.547v0.016l-18.25-0.016zM3.453 24.266v-2.359l11.047-0.016v2.359zM3.547 20.203l0.219-2.344 11 1.016-0.203 2.344zM4.219 15.203l0.609-2.281 10.672 2.859-0.609 2.281zM6.172 9.5l1.203-2.031 9.516 5.625-1.203 2.031zM11.047 3.641l1.953-1.344 6.219 9.141-1.937 1.328zM17.75 0.406l2.328-0.406 1.891 10.891-2.328 0.406z" fill="#000000"></path>
</svg>
