<?xml version="1.0" encoding="utf-8"?>
<!-- Generator: Adobe Illustrator 16.0.0, SVG Export Plug-In . SVG Version: 6.00 Build 0)  -->
<!DOCTYPE svg PUBLIC "-//W3C//DTD SVG 1.1//EN" "http://www.w3.org/Graphics/SVG/1.1/DTD/svg11.dtd">
<svg version="1.1" id="Layer_1" xmlns="http://www.w3.org/2000/svg" xmlns:xlink="http://www.w3.org/1999/xlink" x="0px" y="0px"
	 width="90px" height="90px" viewBox="0 0 90 90" enable-background="new 0 0 90 90" xml:space="preserve">
<g>
	<path d="M54.814,61.148c-0.315,0-0.633-0.073-0.922-0.227l-9.469-4.979l-9.47,4.979c-0.666,0.35-1.473,0.293-2.085-0.15
		c-0.61-0.443-0.916-1.193-0.787-1.938l1.81-10.544l-7.661-7.468c-0.54-0.525-0.735-1.313-0.501-2.03
		c0.232-0.717,0.854-1.239,1.598-1.347l10.587-1.538l4.734-9.595c0.333-0.675,1.021-1.103,1.776-1.103
		c0.754,0,1.442,0.428,1.775,1.103l4.733,9.595l10.588,1.538c0.744,0.108,1.365,0.63,1.599,1.347s0.039,1.504-0.501,2.03
		l-7.661,7.468l1.812,10.544c0.127,0.743-0.18,1.493-0.789,1.938C55.633,61.021,55.225,61.148,54.814,61.148z M44.424,51.727
		c0.317,0,0.632,0.075,0.921,0.228l6.84,3.597l-1.308-7.613c-0.11-0.645,0.104-1.299,0.567-1.754l5.533-5.394l-7.646-1.111
		c-0.644-0.094-1.202-0.498-1.489-1.083l-3.42-6.93l-3.42,6.93c-0.288,0.584-0.845,0.989-1.49,1.083l-7.647,1.111l5.532,5.394
		c0.467,0.455,0.68,1.109,0.571,1.754l-1.308,7.613l6.84-3.597C43.792,51.802,44.106,51.727,44.424,51.727z"/>
</g>
<g>
	<path d="M25.904,35.737H2.157c-1.093,0-1.98-0.887-1.98-1.98c0-1.093,0.887-1.98,1.98-1.98h23.748c1.093,0,1.979,0.887,1.979,1.98
		C27.884,34.85,26.998,35.737,25.904,35.737z"/>
</g>
<g>
	<path d="M21.294,43.228H10.298c-1.093,0-1.979-0.887-1.979-1.98c0-1.093,0.887-1.98,1.979-1.98h10.996
		c1.094,0,1.98,0.887,1.98,1.98C23.274,42.341,22.388,43.228,21.294,43.228z"/>
</g>
<g>
	<path d="M25.594,49.99h-6.226c-1.093,0-1.979-0.887-1.979-1.98c0-1.093,0.887-1.979,1.979-1.979h6.226
		c1.094,0,1.98,0.887,1.98,1.979C27.575,49.104,26.688,49.99,25.594,49.99z"/>
</g>
<g>
	<path d="M87.371,35.737H63.623c-1.094,0-1.979-0.887-1.979-1.98c0-1.093,0.887-1.98,1.979-1.98h23.748
		c1.093,0,1.979,0.887,1.979,1.98C89.35,34.85,88.464,35.737,87.371,35.737z"/>
</g>
<g>
	<path d="M79.229,43.228H68.232c-1.094,0-1.979-0.887-1.979-1.98c0-1.093,0.888-1.98,1.979-1.98h10.996
		c1.094,0,1.979,0.887,1.979,1.98C81.209,42.341,80.322,43.228,79.229,43.228z"/>
</g>
<g>
	<path d="M70.158,49.99h-6.227c-1.094,0-1.979-0.887-1.979-1.98c0-1.093,0.887-1.979,1.979-1.979h6.227
		c1.095,0,1.98,0.887,1.98,1.979C72.139,49.104,71.253,49.99,70.158,49.99z"/>
</g>
</svg>
