<?xml version="1.0" encoding="utf-8"?>
<!-- Generated by IcoMoon.io -->
<!DOCTYPE svg PUBLIC "-//W3C//DTD SVG 1.1//EN" "http://www.w3.org/Graphics/SVG/1.1/DTD/svg11.dtd">
<svg version="1.1" xmlns="http://www.w3.org/2000/svg" xmlns:xlink="http://www.w3.org/1999/xlink" width="30" height="28" viewBox="0 0 30 28">
<g id="icomoon-ignore">
</g>
<path d="M0 18.75v-4.156h5.125v4.094q0 0.672 0.469 1.133t1.125 0.461 1.125-0.461 0.469-1.133v-9.688q0-2.672 1.977-4.562t4.711-1.891q2.75 0 4.719 1.906t1.969 4.594v2.125l-3.047 0.906-2.047-0.953v-1.844q0-0.656-0.469-1.125t-1.125-0.469-1.125 0.469-0.469 1.125v9.562q0 2.734-1.969 4.672t-4.734 1.937q-2.781 0-4.742-1.961t-1.961-4.742zM16.594 18.813v-4.188l2.047 0.953 3.047-0.906v4.219q0 0.656 0.469 1.117t1.125 0.461 1.125-0.461 0.469-1.117v-4.297h5.125v4.156q0 2.781-1.961 4.742t-4.742 1.961q-2.766 0-4.734-1.945t-1.969-4.695z" fill="#000000"></path>
</svg>
