<?xml version="1.0" encoding="utf-8"?>
<!-- Generated by IcoMoon.io -->
<!DOCTYPE svg PUBLIC "-//W3C//DTD SVG 1.1//EN" "http://www.w3.org/Graphics/SVG/1.1/DTD/svg11.dtd">
<svg version="1.1" xmlns="http://www.w3.org/2000/svg" xmlns:xlink="http://www.w3.org/1999/xlink" width="28" height="28" viewBox="0 0 28 28">
<g id="icomoon-ignore">
</g>
<path d="M0 22.5v-13q0-1.437 1.031-2.469t2.469-1.031h1v20h-1q-1.437 0-2.469-1.031t-1.031-2.469zM6 26v-20h2v-2.5q0-0.625 0.438-1.062t1.062-0.437h9q0.625 0 1.062 0.437t0.438 1.062v2.5h2v20h-16zM10 6h8v-2h-8v2zM23.5 26v-20h1q1.437 0 2.469 1.031t1.031 2.469v13q0 1.437-1.031 2.469t-2.469 1.031h-1z" fill="#000000"></path>
</svg>
