<?xml version="1.0" encoding="utf-8"?>
<!-- Generated by IcoMoon.io -->
<!DOCTYPE svg PUBLIC "-//W3C//DTD SVG 1.1//EN" "http://www.w3.org/Graphics/SVG/1.1/DTD/svg11.dtd">
<svg version="1.1" xmlns="http://www.w3.org/2000/svg" xmlns:xlink="http://www.w3.org/1999/xlink" width="26" height="28" viewBox="0 0 26 28">
<g id="icomoon-ignore">
</g>
<path d="M0 21.5v-17q0-1.031 0.734-1.766t1.766-0.734h21q1.031 0 1.766 0.734t0.734 1.766v17q0 1.031-0.734 1.766t-1.766 0.734h-21q-1.031 0-1.766-0.734t-0.734-1.766zM2 21.5q0 0.219 0.141 0.359t0.359 0.141h5q0.219 0 0.359-0.141t0.141-0.359v-3q0-0.219-0.141-0.359t-0.359-0.141h-5q-0.219 0-0.359 0.141t-0.141 0.359v3zM2 15.5q0 0.219 0.141 0.359t0.359 0.141h5q0.219 0 0.359-0.141t0.141-0.359v-3q0-0.219-0.141-0.359t-0.359-0.141h-5q-0.219 0-0.359 0.141t-0.141 0.359v3zM2 9.5q0 0.219 0.141 0.359t0.359 0.141h5q0.219 0 0.359-0.141t0.141-0.359v-3q0-0.219-0.141-0.359t-0.359-0.141h-5q-0.219 0-0.359 0.141t-0.141 0.359v3zM10 21.5q0 0.219 0.141 0.359t0.359 0.141h5q0.219 0 0.359-0.141t0.141-0.359v-3q0-0.219-0.141-0.359t-0.359-0.141h-5q-0.219 0-0.359 0.141t-0.141 0.359v3zM10 15.5q0 0.219 0.141 0.359t0.359 0.141h5q0.219 0 0.359-0.141t0.141-0.359v-3q0-0.219-0.141-0.359t-0.359-0.141h-5q-0.219 0-0.359 0.141t-0.141 0.359v3zM10 9.5q0 0.219 0.141 0.359t0.359 0.141h5q0.219 0 0.359-0.141t0.141-0.359v-3q0-0.219-0.141-0.359t-0.359-0.141h-5q-0.219 0-0.359 0.141t-0.141 0.359v3zM18 21.5q0 0.219 0.141 0.359t0.359 0.141h5q0.219 0 0.359-0.141t0.141-0.359v-3q0-0.219-0.141-0.359t-0.359-0.141h-5q-0.219 0-0.359 0.141t-0.141 0.359v3zM18 15.5q0 0.219 0.141 0.359t0.359 0.141h5q0.219 0 0.359-0.141t0.141-0.359v-3q0-0.219-0.141-0.359t-0.359-0.141h-5q-0.219 0-0.359 0.141t-0.141 0.359v3zM18 9.5q0 0.219 0.141 0.359t0.359 0.141h5q0.219 0 0.359-0.141t0.141-0.359v-3q0-0.219-0.141-0.359t-0.359-0.141h-5q-0.219 0-0.359 0.141t-0.141 0.359v3z" fill="#000000"></path>
</svg>
