<svg xmlns="http://www.w3.org/2000/svg" xmlns:xlink="http://www.w3.org/1999/xlink" version="1.1" id="Your_Icon" x="0px" y="0px" width="100px" height="100px" viewBox="0 0 100 100" enable-background="new 0 0 100 100" xml:space="preserve">
<path fill="#000000" d="M30.542,29.167h1.167c-0.111-0.7-0.47-3.101-0.669-6.361c-0.155-2.545,0.57-4.457,2.155-5.679  c0.035-0.027,0.08-0.063,0.135-0.106c3.981-3.139,8.818-4.866,13.62-4.866c4.802,0,9.636,1.728,13.619,4.866  c0.055,0.043,0.1,0.079,0.135,0.106c1.586,1.222,2.312,3.134,2.156,5.679c-0.197,3.259-0.559,5.662-0.67,6.361h1.168  c0.139-0.896,0.461-3.192,0.65-6.291c0.18-2.952-0.695-5.192-2.602-6.663c-0.031-0.026-0.076-0.058-0.125-0.099  C57.098,12.817,52.008,11,46.95,11c-5.061,0-10.15,1.817-14.334,5.115c-0.049,0.041-0.092,0.073-0.125,0.1  c-1.907,1.47-2.782,3.711-2.602,6.662C30.079,25.975,30.402,28.27,30.542,29.167z M62.912,33.074l0.275-0.597  c0.152-0.331,0.355-0.529,0.605-0.588c0.215-0.053,0.473,0.007,0.654,0.149c0.717,0.558,0.811,5.184-0.359,8.576  c-0.537,1.564-1.127,2.121-1.465,2.121h-1.404c-0.363,0-0.658,0.295-0.658,0.658c0,0.225,0.004,0.463,0.01,0.71  c0.039,1.904,0.094,4.513-2.23,7.752c-2.998,4.184-3.979,5.346-5.979,6.266c-1.357,0.623-3.436,0.611-4.953,0.605  c-0.157-0.002-0.312-0.002-0.459-0.002c-0.148,0-0.302,0-0.463,0.002c-1.515,0.006-3.596,0.016-4.95-0.605  c-2.003-0.92-2.981-2.082-5.981-6.266c-2.321-3.24-2.268-5.848-2.229-7.752c0.007-0.247,0.012-0.485,0.012-0.71  c0-0.363-0.296-0.658-0.661-0.658h-1.401c-0.341,0-0.928-0.557-1.467-2.121c-1.169-3.392-1.074-8.018-0.36-8.576  c0.184-0.143,0.441-0.202,0.657-0.149c0.249,0.059,0.45,0.257,0.604,0.588l0.276,0.599c0.986-1.136,0.368-1.942,0.368-1.942  c-0.27-0.26-0.586-0.442-0.939-0.528c-0.611-0.149-1.277-0.001-1.779,0.391c-1.59,1.243-1.142,6.951-0.076,10.045  c0.689,1.997,1.603,3.011,2.714,3.011h0.734c0,0.007-0.001,0.015-0.001,0.021c-0.043,2.089-0.103,4.951,2.476,8.548  c2.997,4.18,4.162,5.619,6.504,6.697c1.448,0.664,3.396,0.727,4.968,0.727c0.186,0,0.365-0.002,0.54-0.002  c0.157,0,0.31-0.002,0.454-0.002s0.297,0.002,0.455,0.002c0.176,0,0.354,0.002,0.541,0.002c1.571,0,3.517-0.062,4.968-0.727  c2.34-1.078,3.504-2.518,6.502-6.697c2.576-3.597,2.52-6.459,2.475-8.548c0-0.007,0-0.015,0-0.021h0.734  c1.113,0,2.025-1.014,2.713-3.011c1.064-3.095,1.516-8.802-0.074-10.045c-0.504-0.393-1.168-0.539-1.781-0.391  c-0.352,0.083-0.67,0.268-0.938,0.528C62.543,31.134,61.824,31.937,62.912,33.074z M55.562,22.524l-0.166-0.899l-0.74,0.538  c-0.057,0.039-5.602,3.999-13.597,3.999h-8.125v3.005h1.15v-1.851h6.975c6.785,0,11.8-2.666,13.578-3.763  c0.184,0.607,0.508,1.476,1.033,2.351c1.287,2.129,3.035,3.263,5.295,3.263v-1.151C56.504,28.015,55.602,22.748,55.562,22.524z"/>
<g>
	<path fill="#000000" d="M84.105,74.814c-3.32-8.754-8.943-10.801-13.465-11.607c-3.777-0.678-8.486-2.084-10.15-3L51.598,75.1   l-1.34-5.871c1.559-0.898,2.62-2.562,2.62-4.494c0-0.213-0.037-0.418-0.062-0.627c-1.594,0.445-3.308,0.697-5.108,0.697   c-1.828,0-3.57-0.262-5.187-0.719c-0.025,0.215-0.064,0.426-0.064,0.648c0,1.932,1.061,3.596,2.619,4.496l-1.317,5.764   l-8.838-14.781c-1.673,0.91-6.366,2.318-10.142,2.994c-4.525,0.807-10.144,2.854-13.463,11.605   c-0.564,1.49-0.364,3.104,0.549,4.426c3.41,4.936,21.377,5.973,35.843,5.973c14.473,0,32.438-1.037,35.844-5.973   C84.469,77.914,84.668,76.299,84.105,74.814z"/>
</g>
<path fill="#000000" d="M62.146,34.562c-0.032,0-0.288,0.261-0.492,0.476c-0.019,0.336-0.039,0.712-0.061,1.129  c-0.083,1.543-0.176,3.29-0.176,3.898c0,1.303-1.016,1.789-1.654,1.789h-5.407c-2.273,0-3.784-0.799-4.376-2.312  c-1.642-4.201-2.51-4.687-3.022-4.687h-0.129c-0.512,0-1.382,0.486-3.024,4.687c-0.591,1.513-2.102,2.312-4.374,2.312h-5.406  c-0.64,0-1.656-0.486-1.656-1.789c0-0.608-0.095-2.355-0.176-3.898c-0.024-0.417-0.042-0.795-0.062-1.134  c-0.205-0.213-0.458-0.471-0.486-0.471c-0.065,0.067,0.024-2.324,0.024-2.324c0-2.124,3.7-4.326,14.927-4.326l0.05,0.212h0.495  l0.052-0.212c11.225,0,14.924,2.202,14.924,4.326C62.119,32.237,62.21,34.628,62.146,34.562z M60.177,33.311  c0-0.024,0-0.056,0-0.095c0.004-0.241,0.011-0.81-0.636-1.451c-1.114-1.104-4.151-2.419-12.306-2.419h-0.75  c-8.155,0-11.193,1.316-12.305,2.419c-0.646,0.641-0.641,1.209-0.637,1.451c0,0.039,0,0.07-0.001,0.095  c-0.011,0.187,0.059,1.41,0.125,2.593c0.081,1.449,0.166,2.947,0.166,3.504c0,1.011,0.96,1.022,0.97,1.022h5.064  c1.898,0,3.097-2.091,3.561-3.219c1.637-3.982,2.588-4.532,3.372-4.532h0.121c0.784,0,1.735,0.549,3.371,4.532  c0.465,1.127,1.662,3.219,3.561,3.219h5.066c0.01,0,0.97-0.012,0.97-1.022c0-0.558,0.084-2.057,0.163-3.504  C60.12,34.721,60.189,33.497,60.177,33.311z"/>
</svg>