<?xml version="1.0" encoding="utf-8"?>
<!-- Generated by IcoMoon.io -->
<!DOCTYPE svg PUBLIC "-//W3C//DTD SVG 1.1//EN" "http://www.w3.org/Graphics/SVG/1.1/DTD/svg11.dtd">
<svg version="1.1" xmlns="http://www.w3.org/2000/svg" xmlns:xlink="http://www.w3.org/1999/xlink" width="26" height="28" viewBox="0 0 26 28">
<g id="icomoon-ignore">
</g>
<path d="M0.203 21.5q0-0.203 0.156-0.359l6.141-6.141-6.141-6.141q-0.156-0.156-0.156-0.359t0.156-0.359l0.781-0.781q0.156-0.156 0.359-0.156t0.359 0.156l7.281 7.281q0.156 0.156 0.156 0.359t-0.156 0.359l-7.281 7.281q-0.156 0.156-0.359 0.156t-0.359-0.156l-0.781-0.781q-0.156-0.156-0.156-0.359zM10 23.5v-1q0-0.219 0.141-0.359t0.359-0.141h15q0.219 0 0.359 0.141t0.141 0.359v1q0 0.219-0.141 0.359t-0.359 0.141h-15q-0.219 0-0.359-0.141t-0.141-0.359z" fill="#000000"></path>
</svg>
