<?xml version="1.0" encoding="utf-8"?>
<!-- Generated by IcoMoon.io -->
<!DOCTYPE svg PUBLIC "-//W3C//DTD SVG 1.1//EN" "http://www.w3.org/Graphics/SVG/1.1/DTD/svg11.dtd">
<svg version="1.1" xmlns="http://www.w3.org/2000/svg" xmlns:xlink="http://www.w3.org/1999/xlink" width="28" height="28" viewBox="0 0 28 28">
<g id="icomoon-ignore">
</g>
<path d="M0 21.5v-15q0-1.859 1.32-3.18t3.18-1.32h15q1.859 0 3.18 1.32t1.32 3.18v15q0 1.859-1.32 3.18t-3.18 1.32h-15q-1.859 0-3.18-1.32t-1.32-3.18zM4 21.5q0 0.203 0.148 0.352t0.352 0.148h15q0.203 0 0.352-0.148t0.148-0.352v-15q0-0.203-0.148-0.352t-0.352-0.148h-15q-0.203 0-0.352 0.148t-0.148 0.352v15zM7 14q0-0.516 0.422-0.812l7-5q0.266-0.187 0.578-0.187 0.406 0 0.703 0.297t0.297 0.703v10q0 0.406-0.297 0.703t-0.703 0.297q-0.313 0-0.578-0.187l-7-5q-0.422-0.297-0.422-0.812z" fill="#000000"></path>
</svg>
