<?xml version="1.0" encoding="utf-8"?>
<!-- Generated by IcoMoon.io -->
<!DOCTYPE svg PUBLIC "-//W3C//DTD SVG 1.1//EN" "http://www.w3.org/Graphics/SVG/1.1/DTD/svg11.dtd">
<svg version="1.1" xmlns="http://www.w3.org/2000/svg" xmlns:xlink="http://www.w3.org/1999/xlink" width="16" height="28" viewBox="0 0 16 28">
<g id="icomoon-ignore">
</g>
<path d="M1.219 11.828v-3.391q1.422-0.469 2.422-1.313 1-0.859 1.609-2.063 0.609-1.219 0.844-3.063h3.422v6.062h5.688v3.766h-5.688v6.156q0 2.125 0.219 2.688 0.203 0.578 0.812 0.938 0.781 0.484 1.828 0.484 1.828 0 3.625-1.188v3.781q-1.594 0.75-2.781 1.016-1.203 0.297-2.703 0.297-1.641 0-2.906-0.422-1.219-0.391-2.156-1.172-0.906-0.797-1.234-1.641-0.344-0.844-0.344-2.516v-8.422h-2.656z" fill="#000000"></path>
</svg>
