<?xml version="1.0" encoding="utf-8"?>
<!-- Generated by IcoMoon.io -->
<!DOCTYPE svg PUBLIC "-//W3C//DTD SVG 1.1//EN" "http://www.w3.org/Graphics/SVG/1.1/DTD/svg11.dtd">
<svg version="1.1" xmlns="http://www.w3.org/2000/svg" xmlns:xlink="http://www.w3.org/1999/xlink" width="26" height="28" viewBox="0 0 26 28">
<g id="icomoon-ignore">
</g>
<path d="M0 17q0-0.219 0.141-0.359t0.359-0.141h5q0.219 0 0.359 0.141t0.141 0.359-0.141 0.359-0.359 0.141h-5q-0.219 0-0.359-0.141t-0.141-0.359zM0.25 7q0-1.875 1.328-3.172l2.297-2.281q1.297-1.297 3.172-1.297 1.891 0 3.187 1.328l5.219 5.234q0.328 0.328 0.656 0.875l-3.734 0.281-4.266-4.281q-0.438-0.438-1.062-0.438-0.609 0-1.062 0.422l-2.297 2.281q-0.438 0.438-0.438 1.047 0 0.625 0.438 1.062l4.281 4.281-0.281 3.75q-0.547-0.328-0.875-0.656l-5.25-5.25q-1.313-1.344-1.313-3.187zM2 23.5q0-0.203 0.141-0.359l4-4q0.156-0.141 0.359-0.141t0.359 0.141q0.141 0.156 0.141 0.359t-0.141 0.359l-4 4q-0.156 0.141-0.359 0.141-0.187 0-0.359-0.141-0.141-0.156-0.141-0.359zM8.5 25.5v-5q0-0.219 0.141-0.359t0.359-0.141 0.359 0.141 0.141 0.359v5q0 0.219-0.141 0.359t-0.359 0.141-0.359-0.141-0.141-0.359zM9.891 18.312l3.734-0.281 4.266 4.281q0.422 0.422 1.062 0.43t1.062-0.414l2.297-2.281q0.438-0.438 0.438-1.047 0-0.625-0.438-1.062l-4.281-4.297 0.281-3.734q0.547 0.328 0.875 0.656l5.25 5.25q1.313 1.344 1.313 3.187 0 1.875-1.328 3.172l-2.297 2.281q-1.297 1.297-3.172 1.297-1.891 0-3.187-1.328l-5.219-5.234q-0.328-0.328-0.656-0.875zM16.5 5.5v-5q0-0.219 0.141-0.359t0.359-0.141 0.359 0.141 0.141 0.359v5q0 0.219-0.141 0.359t-0.359 0.141-0.359-0.141-0.141-0.359zM19 6.5q0-0.203 0.141-0.359l4-4q0.156-0.141 0.359-0.141t0.359 0.141q0.141 0.156 0.141 0.359t-0.141 0.359l-4 4q-0.172 0.141-0.359 0.141t-0.359-0.141q-0.141-0.156-0.141-0.359zM20 9q0-0.219 0.141-0.359t0.359-0.141h5q0.219 0 0.359 0.141t0.141 0.359-0.141 0.359-0.359 0.141h-5q-0.219 0-0.359-0.141t-0.141-0.359z" fill="#000000"></path>
</svg>
