<?xml version="1.0" encoding="utf-8"?>
<!-- Generated by IcoMoon.io -->
<!DOCTYPE svg PUBLIC "-//W3C//DTD SVG 1.1//EN" "http://www.w3.org/Graphics/SVG/1.1/DTD/svg11.dtd">
<svg version="1.1" xmlns="http://www.w3.org/2000/svg" xmlns:xlink="http://www.w3.org/1999/xlink" width="28" height="28" viewBox="0 0 28 28">
<g id="icomoon-ignore">
</g>
<path d="M0 21.5v-15q0-1.859 1.32-3.18t3.18-1.32h15q1.859 0 3.18 1.32t1.32 3.18v15q0 1.859-1.32 3.18t-3.18 1.32h-15q-1.859 0-3.18-1.32t-1.32-3.18zM3.547 17.813q0.125 0.203 0.375 0.203h2.891q0.484 0 0.781-0.562l3.109-5.5q0-0.016-1.969-3.469-0.328-0.531-0.812-0.531h-2.875q-0.281 0-0.406 0.172-0.109 0.187 0.016 0.453l1.953 3.375v0.016l-3.063 5.406q-0.141 0.219 0 0.438zM9.969 15.937q0.016 0.031 4.094 7.516 0.313 0.547 0.812 0.547h2.875q0.281 0 0.391-0.187 0.125-0.203-0.016-0.438l-4.062-7.438v-0.016l6.391-11.297q0.125-0.25 0-0.438-0.109-0.187-0.375-0.187h-2.922q-0.469 0-0.766 0.547z" fill="#000000"></path>
</svg>
