<?xml version="1.0" encoding="utf-8"?>
<!-- Generated by IcoMoon.io -->
<!DOCTYPE svg PUBLIC "-//W3C//DTD SVG 1.1//EN" "http://www.w3.org/Graphics/SVG/1.1/DTD/svg11.dtd">
<svg version="1.1" xmlns="http://www.w3.org/2000/svg" xmlns:xlink="http://www.w3.org/1999/xlink" width="28" height="28" viewBox="0 0 28 28">
<g id="icomoon-ignore">
</g>
<path d="M0.422 19.938q0-3.656 0.406-5.469 0.219-0.922 0.906-1.547t1.609-0.734q2.859-0.313 8.656-0.313t8.672 0.313q0.906 0.109 1.602 0.734t0.898 1.547q0.406 1.75 0.406 5.469 0 3.656-0.406 5.469-0.219 0.922-0.906 1.547t-1.594 0.719q-2.875 0.328-8.672 0.328t-8.672-0.328q-0.906-0.094-1.602-0.719t-0.898-1.547q-0.406-1.75-0.406-5.469zM2.156 16.047h1.641v8.891h1.563v-8.891h1.672v-1.469h-4.875v1.469zM4.156 0h1.656l1.109 4.109 1.062-4.109h1.594l-1.891 6.234v4.234h-1.563v-4.234q-0.219-1.156-0.953-3.313-0.578-1.609-1.016-2.922zM7.234 23.328q0 0.766 0.125 1.141 0.187 0.578 0.906 0.578 0.75 0 1.594-0.953v0.844h1.391v-7.719h-1.391v5.906q-0.469 0.656-0.891 0.656-0.281 0-0.328-0.328-0.016-0.047-0.016-0.547v-5.688h-1.391v6.109zM9.594 7.938v-2.734q0-1.25 0.438-1.828 0.594-0.797 1.641-0.797 1.078 0 1.656 0.797 0.438 0.578 0.438 1.828v2.734q0 1.266-0.438 1.844-0.578 0.797-1.656 0.797-1.047 0-1.641-0.797-0.438-0.594-0.438-1.844zM11 8.203q0 1.094 0.672 1.094t0.672-1.094v-3.281q0-1.078-0.672-1.078t-0.672 1.078v3.281zM12.469 24.938h1.391v-0.75q0.703 0.859 1.453 0.859 0.844 0 1.109-0.859 0.141-0.422 0.141-1.563v-3.078q0-1.141-0.141-1.547-0.266-0.875-1.109-0.875-0.781 0-1.453 0.844v-3.391h-1.391v10.359zM13.859 23.438v-4.703q0.344-0.344 0.703-0.344 0.609 0 0.609 1.047v3.297q0 1.047-0.609 1.047-0.359 0-0.703-0.344zM14.922 8.828v-6.156h1.422v5.734q0 0.516 0.016 0.547 0.047 0.344 0.328 0.344 0.422 0 0.891-0.672v-5.953h1.422v7.797h-1.422v-0.859q-0.828 0.969-1.609 0.969-0.719 0-0.922-0.578-0.125-0.375-0.125-1.172zM17.656 22.437q0 1.234 0.453 1.813 0.609 0.797 1.687 0.797 1.125 0 1.687-0.828 0.281-0.422 0.328-0.844 0.031-0.141 0.031-0.906v-0.203h-1.422q0 0.797-0.031 0.953-0.109 0.562-0.625 0.562-0.719 0-0.719-1.078v-1.359h2.797v-1.609q0-1.234-0.422-1.813-0.609-0.797-1.656-0.797-1.062 0-1.672 0.797-0.438 0.578-0.438 1.813v2.703zM19.047 20.172v-0.719q0-1.062 0.703-1.062t0.703 1.062v0.719h-1.406z" fill="#000000"></path>
</svg>
